<svg width="314" height="56" viewBox="0 0 314 56" fill="none" xmlns="http://www.w3.org/2000/svg">
<rect width="314" height="56" rx="28" fill="#FF5136"/>
<path d="M50.9375 30.0625C50.8958 30.2292 50.9583 30.3125 51.125 30.3125H59.8438C59.9896 30.3125 60.0729 30.2292 60.0938 30.0625C60.2188 29.1042 60.4062 27.5417 60.6562 25.375C60.6771 25.2292 60.6042 25.1562 60.4375 25.1562H52.25C52.0833 25.1562 51.9896 25.2292 51.9688 25.375C51.6354 26.9583 51.2917 28.5208 50.9375 30.0625ZM63.0938 37.6875C63.0729 37.8333 63.1458 37.9062 63.3125 37.9062H68.8125C69.3125 37.9062 69.7292 38.0833 70.0625 38.4375C70.4167 38.7917 70.5938 39.2188 70.5938 39.7188C70.5938 40.1979 70.4167 40.6042 70.0625 40.9375C69.7292 41.2917 69.3125 41.4688 68.8125 41.4688H43.3125C42.8125 41.4688 42.3854 41.2917 42.0312 40.9375C41.6979 40.6042 41.5312 40.1979 41.5312 39.7188C41.5312 39.2188 41.6979 38.7917 42.0312 38.4375C42.3854 38.0833 42.8125 37.9062 43.3125 37.9062H58.6875C58.8333 37.9062 58.9167 37.8333 58.9375 37.6875C59.1458 36.5833 59.3542 35.3438 59.5625 33.9688C59.5833 33.8021 59.5104 33.7188 59.3438 33.7188H50.25C50.1458 33.7188 50.0729 33.7812 50.0312 33.9062C49.9271 34.2812 49.7188 34.5833 49.4062 34.8125C49.1146 35.0417 48.7917 35.1562 48.4375 35.1562C48.3958 35.1562 48.3542 35.1458 48.3125 35.125L47.3438 35.0625C46.8646 35.0417 46.4896 34.8333 46.2188 34.4375C46.0312 34.1667 45.9375 33.8854 45.9375 33.5938C45.9375 33.4479 45.9583 33.3021 46 33.1562C47.3333 28.2396 48.4167 23.3125 49.25 18.375C49.2708 18.2292 49.1979 18.1562 49.0312 18.1562H44.3125C43.8125 18.1562 43.3854 17.9792 43.0312 17.625C42.6979 17.2708 42.5312 16.8542 42.5312 16.375C42.5312 15.875 42.6979 15.4583 43.0312 15.125C43.3854 14.7708 43.8125 14.5938 44.3125 14.5938H67.9375C68.4375 14.5938 68.8542 14.7708 69.1875 15.125C69.5417 15.4583 69.7188 15.875 69.7188 16.375C69.7188 16.8542 69.5417 17.2708 69.1875 17.625C68.8542 17.9792 68.4375 18.1562 67.9375 18.1562H53.6875C53.5208 18.1562 53.4271 18.2292 53.4062 18.375C53.2604 19.1042 53.0417 20.1562 52.75 21.5312C52.7292 21.6771 52.7917 21.75 52.9375 21.75H63.25C63.75 21.75 64.1562 21.9375 64.4688 22.3125C64.7604 22.625 64.9062 22.9896 64.9062 23.4062C64.9062 23.4688 64.9062 23.5312 64.9062 23.5938C64.2812 29.3438 63.6771 34.0417 63.0938 37.6875ZM84.85 36.1562C84.6833 36.1562 84.6 36.2396 84.6 36.4062V37.5625C84.6 37.7083 84.6833 37.7812 84.85 37.7812C86.1 37.6979 87.7979 37.5625 89.9437 37.375C90.1104 37.3542 90.2354 37.2812 90.3187 37.1562C91.4229 35.5521 92.225 33.6771 92.725 31.5312C93.225 29.3854 93.5375 26.8125 93.6625 23.8125C93.6625 23.6667 93.5896 23.5938 93.4437 23.5938H92.6C92.0792 23.5938 91.6417 23.4167 91.2875 23.0625C90.9333 22.6875 90.7562 22.25 90.7562 21.75V21.3125C90.7562 21.1667 90.6729 21.0938 90.5062 21.0938H84.85C84.6833 21.0938 84.6 21.1667 84.6 21.3125V22.0938C84.6 22.2604 84.6833 22.3438 84.85 22.3438H88.4437C88.9437 22.3438 89.3708 22.5208 89.725 22.875C90.1 23.2292 90.2875 23.6667 90.2875 24.1875V30.375C90.2875 30.8958 90.1 31.3333 89.725 31.6875C89.3708 32.0417 88.9437 32.2188 88.4437 32.2188H84.85C84.6833 32.2188 84.6 32.3021 84.6 32.4688V33.25C84.6 33.3958 84.6833 33.4688 84.85 33.4688H89.0687C89.4229 33.4688 89.7354 33.6042 90.0062 33.875C90.2771 34.125 90.4125 34.4375 90.4125 34.8125C90.4125 35.1875 90.2771 35.5104 90.0062 35.7812C89.7354 36.0312 89.4229 36.1562 89.0687 36.1562H84.85ZM78.6625 29.625C78.6625 29.7708 78.7354 29.8438 78.8812 29.8438H80.9125C81.0792 29.8438 81.1625 29.7708 81.1625 29.625V28.6562C81.1625 28.4896 81.0792 28.4062 80.9125 28.4062H78.8812C78.7354 28.4062 78.6625 28.4896 78.6625 28.6562V29.625ZM87.1 28.6562C87.1 28.4896 87.0271 28.4062 86.8812 28.4062H84.85C84.6833 28.4062 84.6 28.4896 84.6 28.6562V29.625C84.6 29.7708 84.6833 29.8438 84.85 29.8438H86.8812C87.0271 29.8438 87.1 29.7708 87.1 29.625V28.6562ZM84.6 25.9062C84.6 26.0729 84.6833 26.1562 84.85 26.1562H86.8812C87.0271 26.1562 87.1 26.0729 87.1 25.9062V24.9688C87.1 24.8229 87.0271 24.75 86.8812 24.75H84.85C84.6833 24.75 84.6 24.8229 84.6 24.9688V25.9062ZM78.8812 24.75C78.7354 24.75 78.6625 24.8229 78.6625 24.9688V25.9062C78.6625 26.0729 78.7354 26.1562 78.8812 26.1562H80.9125C81.0792 26.1562 81.1625 26.0729 81.1625 25.9062V24.9688C81.1625 24.8229 81.0792 24.75 80.9125 24.75H78.8812ZM97.3812 19.875C97.3812 20.0208 97.4542 20.0938 97.6 20.0938H102.037C102.537 20.0938 102.965 20.2708 103.319 20.625C103.673 20.9792 103.85 21.4062 103.85 21.9062C103.85 26.7604 103.673 31.4688 103.319 36.0312C103.11 38.6354 102.767 40.2917 102.287 41C101.933 41.5 101.558 41.8542 101.162 42.0625C100.787 42.2917 100.319 42.4688 99.7562 42.5938C99.2354 42.6979 98.5167 42.75 97.6 42.75C97.1 42.75 96.6521 42.5729 96.2562 42.2188C95.8604 41.8646 95.5896 41.4271 95.4437 40.9062C95.4229 40.8646 95.4021 40.8125 95.3812 40.75C95.3396 40.625 95.3187 40.4896 95.3187 40.3438C95.3187 40.1146 95.3917 39.8854 95.5375 39.6562C95.7667 39.3438 96.0687 39.1875 96.4437 39.1875C96.4646 39.1875 96.4854 39.1875 96.5062 39.1875C97.0271 39.2083 97.4854 39.2188 97.8812 39.2188C98.3604 39.2188 98.725 39.0417 98.975 38.6875C99.3083 38.25 99.5583 36.9271 99.725 34.7188C99.9125 32.5104 100.058 28.875 100.162 23.8125C100.162 23.6667 100.079 23.5938 99.9125 23.5938H97.5062C97.3604 23.5938 97.2771 23.6667 97.2562 23.8125C97.0479 28.0208 96.5062 31.5729 95.6312 34.4688C94.7771 37.3646 93.3604 39.8021 91.3812 41.7812C91.0687 42.0729 90.7146 42.2188 90.3187 42.2188C90.2562 42.2188 90.1937 42.2188 90.1312 42.2188C89.6521 42.1562 89.2354 41.9375 88.8812 41.5625C88.5687 41.2083 88.2562 40.8958 87.9437 40.625C87.8396 40.5208 87.7042 40.4792 87.5375 40.5C82.4542 41.0417 78.85 41.4062 76.725 41.5938C76.6625 41.5938 76.6 41.5938 76.5375 41.5938C76.1625 41.5938 75.8187 41.4688 75.5062 41.2188C75.1521 40.9479 74.9437 40.5833 74.8812 40.125C74.8604 40.0417 74.85 39.9688 74.85 39.9062C74.85 39.5521 74.9646 39.2396 75.1937 38.9688C75.4646 38.6354 75.8187 38.4479 76.2562 38.4062C78.0062 38.2812 79.5583 38.1771 80.9125 38.0938C81.0792 38.0938 81.1625 38.0104 81.1625 37.8438V36.4062C81.1625 36.2396 81.0792 36.1562 80.9125 36.1562H76.85C76.4958 36.1562 76.1833 36.0312 75.9125 35.7812C75.6417 35.5104 75.5062 35.1875 75.5062 34.8125C75.5062 34.4375 75.6417 34.125 75.9125 33.875C76.1833 33.6042 76.4958 33.4688 76.85 33.4688H80.9125C81.0792 33.4688 81.1625 33.3958 81.1625 33.25V32.4688C81.1625 32.3021 81.0792 32.2188 80.9125 32.2188H77.5062C76.9854 32.2188 76.5479 32.0417 76.1937 31.6875C75.8396 31.3333 75.6625 30.8958 75.6625 30.375V24.1875C75.6625 23.6667 75.8396 23.2292 76.1937 22.875C76.5479 22.5208 76.9854 22.3438 77.5062 22.3438H80.9125C81.0792 22.3438 81.1625 22.2604 81.1625 22.0938V21.3125C81.1625 21.1667 81.0792 21.0938 80.9125 21.0938H76.225C75.85 21.0938 75.5271 20.9583 75.2562 20.6875C74.9854 20.4167 74.85 20.0938 74.85 19.7188C74.85 19.3438 74.9854 19.0208 75.2562 18.75C75.5271 18.4792 75.85 18.3438 76.225 18.3438H80.9125C81.0792 18.3438 81.1625 18.2604 81.1625 18.0938V17.2812C81.1625 17.1354 81.0792 17.0625 80.9125 17.0625C79.5375 17.1667 78.2875 17.2396 77.1625 17.2812C77.1417 17.2812 77.1208 17.2812 77.1 17.2812C76.725 17.2812 76.3812 17.1562 76.0687 16.9062C75.7562 16.6562 75.5375 16.3333 75.4125 15.9375C75.3083 15.6042 75.35 15.2917 75.5375 15C75.725 14.7083 75.9854 14.5521 76.3187 14.5312C80.5896 14.2604 84.1833 13.875 87.1 13.375C87.225 13.3542 87.3604 13.3438 87.5062 13.3438C87.8396 13.3438 88.1729 13.4062 88.5062 13.5312C88.9437 13.7396 89.2875 14.0521 89.5375 14.4688C89.6417 14.6771 89.6937 14.875 89.6937 15.0625C89.6937 15.2292 89.6625 15.3958 89.6 15.5625C89.4333 15.9167 89.1521 16.1354 88.7562 16.2188C87.5687 16.4062 86.2667 16.5833 84.85 16.75C84.6833 16.7708 84.6 16.8542 84.6 17V18.0938C84.6 18.2604 84.6833 18.3438 84.85 18.3438H89.1937C89.6312 18.3438 89.9958 18.5 90.2875 18.8125C90.6 19.1042 90.7562 19.4688 90.7562 19.9062C90.7562 20.0312 90.8187 20.0938 90.9437 20.0938H93.5375C93.6833 20.0938 93.7562 20.0208 93.7562 19.875C93.7771 18.6667 93.7875 17.1146 93.7875 15.2188C93.7875 14.7188 93.9646 14.2917 94.3187 13.9375C94.6729 13.5833 95.1 13.4062 95.6 13.4062C96.1208 13.4062 96.5583 13.5833 96.9125 13.9375C97.2667 14.2917 97.4437 14.7188 97.4437 15.2188C97.4437 17.0521 97.4229 18.6042 97.3812 19.875ZM118.981 29.375C118.835 29.375 118.762 29.4583 118.762 29.625V36.1875C118.762 36.3333 118.835 36.3958 118.981 36.375C120.356 36.125 121.71 35.875 123.044 35.625C123.148 35.6042 123.252 35.5938 123.356 35.5938C123.669 35.5938 123.96 35.6979 124.231 35.9062C124.606 36.1771 124.815 36.5417 124.856 37C124.856 37.0625 124.856 37.1146 124.856 37.1562C124.856 37.5729 124.731 37.9583 124.481 38.3125C124.19 38.7083 123.804 38.9583 123.325 39.0625C120.137 39.75 116.294 40.5625 111.794 41.5C111.648 41.5417 111.502 41.5625 111.356 41.5625C111.002 41.5625 110.669 41.4583 110.356 41.25C109.919 40.9792 109.627 40.6042 109.481 40.125L109.419 39.8125C109.377 39.6667 109.356 39.5208 109.356 39.375C109.356 39.0625 109.44 38.7708 109.606 38.5C109.877 38.0833 110.252 37.8333 110.731 37.75C112.335 37.5208 113.669 37.3125 114.731 37.125C114.898 37.1042 114.981 37.0104 114.981 36.8438V29.625C114.981 29.4583 114.898 29.375 114.731 29.375H111.981C111.481 29.375 111.044 29.1979 110.669 28.8438C110.315 28.4896 110.137 28.0625 110.137 27.5625C110.137 27.0417 110.315 26.6042 110.669 26.25C111.044 25.875 111.481 25.6875 111.981 25.6875H122.044C122.544 25.6875 122.971 25.875 123.325 26.25C123.7 26.6042 123.887 27.0417 123.887 27.5625C123.887 28.0625 123.7 28.4896 123.325 28.8438C122.971 29.1979 122.544 29.375 122.044 29.375H118.981ZM137.544 20.2188C137.544 20.7188 137.356 21.1562 136.981 21.5312C136.627 21.8854 136.2 22.0625 135.7 22.0625H129.106C128.94 22.0625 128.867 22.1354 128.887 22.2812C129.242 27.0312 129.867 30.9688 130.762 34.0938C131.679 37.2188 132.7 38.7812 133.825 38.7812C134.387 38.7812 134.762 37.4792 134.95 34.875C134.971 34.5 135.148 34.2396 135.481 34.0938C135.627 34.0521 135.762 34.0312 135.887 34.0312C136.075 34.0312 136.262 34.0938 136.45 34.2188C136.554 34.2812 136.648 34.3438 136.731 34.4062C137.21 34.7188 137.585 35.1146 137.856 35.5938C138.065 35.9688 138.169 36.3542 138.169 36.75C138.169 36.875 138.158 36.9896 138.137 37.0938C137.825 39.2812 137.315 40.7708 136.606 41.5625C135.919 42.375 134.877 42.7812 133.481 42.7812C132.169 42.7812 130.992 42.25 129.95 41.1875C128.929 40.125 128.075 38.625 127.387 36.6875C126.721 34.75 126.179 32.6042 125.762 30.25C125.367 27.875 125.065 25.2188 124.856 22.2812C124.835 22.1354 124.752 22.0625 124.606 22.0625H110.762C110.262 22.0625 109.825 21.8854 109.45 21.5312C109.096 21.1562 108.919 20.7188 108.919 20.2188V20.1875C108.919 19.6667 109.096 19.2292 109.45 18.875C109.825 18.5208 110.262 18.3438 110.762 18.3438H124.419C124.565 18.3438 124.637 18.2604 124.637 18.0938C124.575 16.6562 124.544 15.5833 124.544 14.875C124.544 14.375 124.721 13.9479 125.075 13.5938C125.45 13.2396 125.887 13.0625 126.387 13.0625H126.794C127.294 13.0625 127.721 13.2396 128.075 13.5938C128.429 13.9479 128.606 14.3854 128.606 14.9062V15.25C128.606 16.2708 128.627 17.2188 128.669 18.0938C128.669 18.2604 128.752 18.3438 128.919 18.3438H133.481C133.544 18.3438 133.585 18.3229 133.606 18.2812C133.627 18.2396 133.617 18.1979 133.575 18.1562C133.054 17.5312 132.283 16.8125 131.262 16C130.929 15.7083 130.762 15.3542 130.762 14.9375C130.762 14.5208 130.929 14.1875 131.262 13.9375C131.637 13.625 132.065 13.4583 132.544 13.4375C132.565 13.4375 132.585 13.4375 132.606 13.4375C133.065 13.4375 133.471 13.5833 133.825 13.875C134.408 14.3125 134.929 14.7396 135.387 15.1562C135.742 15.4688 135.919 15.8542 135.919 16.3125C135.919 16.8542 135.721 17.3021 135.325 17.6562L134.7 18.1875C134.679 18.2083 134.669 18.2396 134.669 18.2812C134.69 18.3229 134.721 18.3438 134.762 18.3438H135.7C136.2 18.3438 136.627 18.5208 136.981 18.875C137.356 19.2292 137.544 19.6667 137.544 20.1875V20.2188ZM142.769 33.1562C142.831 32.7396 143.029 32.4062 143.363 32.1562C143.613 31.9479 143.894 31.8438 144.206 31.8438C144.29 31.8438 144.373 31.8542 144.456 31.875C144.894 31.9375 145.238 32.1458 145.488 32.5C145.717 32.7708 145.831 33.0833 145.831 33.4375C145.831 33.5 145.821 33.5729 145.8 33.6562C145.529 35.6146 145.144 37.375 144.644 38.9375C144.519 39.3125 144.258 39.5729 143.863 39.7188C143.696 39.7812 143.529 39.8125 143.363 39.8125C143.154 39.8125 142.946 39.7604 142.738 39.6562C142.363 39.4688 142.092 39.1771 141.925 38.7812C141.842 38.5729 141.8 38.3542 141.8 38.125C141.8 37.9583 141.831 37.7812 141.894 37.5938C142.248 36.4271 142.54 34.9479 142.769 33.1562ZM162.581 35.0625H164.738C164.8 35.0625 164.852 35.0625 164.894 35.0625C164.915 35.0625 164.935 35.0625 164.956 35.0625C165.331 35.0625 165.675 35.1771 165.988 35.4062C166.279 35.6562 166.446 35.9688 166.488 36.3438C166.488 36.4062 166.488 36.4583 166.488 36.5C166.488 36.875 166.383 37.2188 166.175 37.5312C165.904 37.8646 165.571 38.0312 165.175 38.0312C165.05 38.0521 164.904 38.0625 164.738 38.0625H162.581C161.123 38.0625 160.154 37.7708 159.675 37.1875C159.196 36.6042 158.956 35.5312 158.956 33.9688V31.3125C158.956 31.2292 158.915 31.1875 158.831 31.1875C158.581 31.1875 158.363 31.1042 158.175 30.9375C158.008 30.75 157.925 30.5312 157.925 30.2812V29.75C157.925 29.3542 158.06 29.0208 158.331 28.75C158.623 28.4583 158.967 28.3125 159.363 28.3125H160.456C160.623 28.3125 160.706 28.2396 160.706 28.0938V26.0625C160.706 25.8958 160.623 25.8125 160.456 25.8125H159.456C159.06 25.8125 158.717 25.6771 158.425 25.4062C158.154 25.1146 158.019 24.7708 158.019 24.375V23.9688C158.019 23.6771 158.113 23.4375 158.3 23.25C158.508 23.0417 158.758 22.9375 159.05 22.9375C159.133 22.9375 159.165 22.8958 159.144 22.8125C159.019 22.0208 158.81 21.1667 158.519 20.25C158.415 19.9375 158.425 19.6354 158.55 19.3438C158.696 19.0521 158.925 18.8542 159.238 18.75C159.55 18.625 159.863 18.6354 160.175 18.7812C160.488 18.9062 160.706 19.125 160.831 19.4375C161.04 19.9375 161.206 20.4583 161.331 21C161.373 21.125 161.394 21.25 161.394 21.375C161.394 21.6458 161.321 21.8958 161.175 22.125C160.967 22.4792 160.665 22.7292 160.269 22.875C160.269 22.875 160.269 22.8854 160.269 22.9062C160.269 22.9271 160.269 22.9375 160.269 22.9375H163.925C163.925 22.9167 163.925 22.9062 163.925 22.9062C163.613 22.7812 163.383 22.5729 163.238 22.2812C163.113 21.9896 163.102 21.6875 163.206 21.375C163.394 20.8125 163.56 20.2292 163.706 19.625C163.81 19.25 164.029 18.9583 164.363 18.75C164.592 18.6042 164.831 18.5312 165.081 18.5312C165.206 18.5312 165.342 18.5521 165.488 18.5938C165.863 18.6979 166.123 18.9271 166.269 19.2812C166.352 19.4688 166.394 19.6562 166.394 19.8438C166.394 20.0104 166.352 20.1875 166.269 20.375C166.165 20.5833 165.988 20.9792 165.738 21.5625C165.488 22.125 165.31 22.5312 165.206 22.7812C165.144 22.8854 165.175 22.9375 165.3 22.9375C165.675 22.9375 165.988 23.0729 166.238 23.3438C166.508 23.6146 166.644 23.9375 166.644 24.3125V24.375C166.644 24.7708 166.498 25.1146 166.206 25.4062C165.935 25.6771 165.602 25.8125 165.206 25.8125H164.144C163.977 25.8125 163.894 25.8958 163.894 26.0625V28.0938C163.894 28.2396 163.977 28.3125 164.144 28.3125H165.3C165.696 28.3125 166.029 28.4583 166.3 28.75C166.592 29.0208 166.738 29.3542 166.738 29.75C166.738 30.1458 166.592 30.4896 166.3 30.7812C166.029 31.0521 165.696 31.1875 165.3 31.1875H162.331C162.185 31.1875 162.113 31.2708 162.113 31.4375V34.0312C162.113 34.4479 162.144 34.7292 162.206 34.875C162.269 35 162.394 35.0625 162.581 35.0625ZM169.144 14.2812C169.644 14.2812 170.071 14.4583 170.425 14.8125C170.8 15.1667 170.988 15.6042 170.988 16.125V39C170.988 39.8958 170.883 40.5833 170.675 41.0625C170.467 41.5417 170.102 41.9167 169.581 42.1875C168.873 42.5417 167.821 42.7396 166.425 42.7812C166.404 42.7812 166.383 42.7812 166.363 42.7812C165.904 42.7812 165.498 42.6354 165.144 42.3438C164.769 42.0312 164.508 41.6354 164.363 41.1562C164.321 41.0104 164.3 40.8854 164.3 40.7812C164.3 40.5312 164.373 40.3021 164.519 40.0938C164.727 39.7812 165.019 39.625 165.394 39.625C165.415 39.625 165.425 39.625 165.425 39.625C165.883 39.6458 166.383 39.6562 166.925 39.6562C167.133 39.6354 167.279 39.5833 167.363 39.5C167.467 39.3958 167.519 39.2292 167.519 39V17.8125C167.519 17.6458 167.446 17.5625 167.3 17.5625H157.425C157.258 17.5625 157.175 17.6458 157.175 17.8125V41.1562C157.175 41.6146 157.008 42.0104 156.675 42.3438C156.342 42.6771 155.946 42.8438 155.488 42.8438C155.029 42.8438 154.633 42.6771 154.3 42.3438C153.967 42.0104 153.8 41.6146 153.8 41.1562V37.5C153.8 37.4583 153.769 37.4167 153.706 37.375C153.665 37.3333 153.623 37.3229 153.581 37.3438L153.206 37.4688C153.04 37.5312 152.873 37.5625 152.706 37.5625C152.435 37.5625 152.175 37.4792 151.925 37.3125C151.508 37.0625 151.248 36.6979 151.144 36.2188C150.956 35.3646 150.727 34.4896 150.456 33.5938C150.394 33.4479 150.363 33.3021 150.363 33.1562C150.363 32.9479 150.415 32.75 150.519 32.5625C150.685 32.2292 150.946 32 151.3 31.875C151.467 31.8333 151.623 31.8125 151.769 31.8125C151.998 31.8125 152.217 31.8646 152.425 31.9688C152.779 32.1354 153.019 32.4062 153.144 32.7812C153.331 33.3021 153.529 33.9062 153.738 34.5938C153.738 34.6146 153.748 34.625 153.769 34.625C153.79 34.625 153.8 34.6146 153.8 34.5938V30.5938C153.8 30.5521 153.769 30.5208 153.706 30.5C153.665 30.4583 153.623 30.4479 153.581 30.4688L153.331 30.5625C153.144 30.6667 152.956 30.7188 152.769 30.7188C152.56 30.7188 152.352 30.6667 152.144 30.5625C151.727 30.375 151.467 30.0625 151.363 29.625C151.321 29.4792 151.227 29.4167 151.081 29.4375L149.925 29.5312C149.779 29.5312 149.706 29.6146 149.706 29.7812V41.1562C149.706 41.5938 149.54 41.9688 149.206 42.2812C148.894 42.6146 148.508 42.7812 148.05 42.7812C147.613 42.7812 147.227 42.6146 146.894 42.2812C146.581 41.9688 146.425 41.5938 146.425 41.1562V30.0312C146.425 29.8646 146.352 29.7917 146.206 29.8125L143.644 30C143.581 30.0208 143.529 30.0312 143.488 30.0312C143.092 30.0312 142.727 29.8958 142.394 29.625C142.04 29.3333 141.842 28.9583 141.8 28.5C141.779 28.4375 141.769 28.3646 141.769 28.2812C141.769 27.9271 141.894 27.6042 142.144 27.3125C142.435 26.9583 142.81 26.7708 143.269 26.75L143.675 26.7188C143.821 26.7188 143.946 26.6562 144.05 26.5312C144.404 26.1146 144.79 25.6146 145.206 25.0312C145.29 24.9062 145.29 24.7708 145.206 24.625C144.602 23.6875 143.79 22.6458 142.769 21.5C142.435 21.125 142.269 20.6875 142.269 20.1875C142.269 19.7708 142.383 19.3958 142.613 19.0625L143.019 18.5C143.165 18.3125 143.352 18.2083 143.581 18.1875C143.81 18.1667 144.019 18.2292 144.206 18.375C144.269 18.4375 144.31 18.4375 144.331 18.375C144.956 17.1458 145.519 15.875 146.019 14.5625C146.185 14.125 146.488 13.8021 146.925 13.5938C147.175 13.4688 147.425 13.4062 147.675 13.4062C147.863 13.4062 148.05 13.4375 148.238 13.5C148.675 13.6458 148.977 13.9375 149.144 14.375C149.227 14.5625 149.269 14.75 149.269 14.9375C149.269 15.1667 149.206 15.3958 149.081 15.625C148.019 17.6875 147.123 19.2812 146.394 20.4062C146.31 20.5312 146.321 20.6562 146.425 20.7812C146.654 21.0312 146.894 21.3229 147.144 21.6562C147.185 21.7188 147.227 21.75 147.269 21.75C147.331 21.7292 147.383 21.6979 147.425 21.6562C148.175 20.4479 148.842 19.2917 149.425 18.1875C149.633 17.7708 149.967 17.4896 150.425 17.3438C150.613 17.2604 150.8 17.2188 150.988 17.2188C151.238 17.2188 151.488 17.2812 151.738 17.4062C152.133 17.5938 152.394 17.8958 152.519 18.3125C152.56 18.4583 152.581 18.6042 152.581 18.75C152.581 19.0208 152.498 19.2812 152.331 19.5312C150.54 22.2188 148.925 24.4896 147.488 26.3438C147.446 26.3854 147.435 26.4271 147.456 26.4688C147.477 26.5104 147.508 26.5208 147.55 26.5L149.863 26.375C149.925 26.375 149.967 26.3542 149.988 26.3125C150.029 26.25 150.04 26.1979 150.019 26.1562C149.935 25.9688 149.852 25.7917 149.769 25.625C149.665 25.4167 149.613 25.2083 149.613 25C149.613 24.8542 149.644 24.6979 149.706 24.5312C149.831 24.1562 150.071 23.8958 150.425 23.75C150.633 23.6667 150.842 23.625 151.05 23.625C151.238 23.625 151.425 23.6562 151.613 23.7188C151.988 23.8646 152.279 24.1146 152.488 24.4688C152.946 25.4062 153.352 26.3125 153.706 27.1875C153.706 27.2083 153.717 27.2188 153.738 27.2188C153.779 27.1979 153.8 27.1771 153.8 27.1562V16.125C153.8 15.6042 153.977 15.1667 154.331 14.8125C154.685 14.4583 155.123 14.2812 155.644 14.2812H169.144ZM183.9 30.9375C183.733 30.9375 183.65 31.0208 183.65 31.1875V32.4375C183.65 32.6042 183.733 32.6875 183.9 32.6875H197.025C197.171 32.6875 197.244 32.6042 197.244 32.4375V31.1875C197.244 31.0208 197.171 30.9375 197.025 30.9375H183.9ZM183.9 26.4062C183.733 26.4062 183.65 26.4792 183.65 26.625V27.9375C183.65 28.1042 183.733 28.1875 183.9 28.1875H197.025C197.171 28.1875 197.244 28.1042 197.244 27.9375V26.625C197.244 26.4792 197.171 26.4062 197.025 26.4062H183.9ZM183.9 21.9375C183.733 21.9375 183.65 22.0208 183.65 22.1875V23.4375C183.65 23.6042 183.733 23.6875 183.9 23.6875H197.025C197.171 23.6875 197.244 23.6042 197.244 23.4375V22.1875C197.244 22.0208 197.171 21.9375 197.025 21.9375H183.9ZM201.431 33.75C201.431 34.25 201.244 34.6875 200.869 35.0625C200.515 35.4167 200.087 35.5938 199.587 35.5938H195.525C195.504 35.5938 195.494 35.6042 195.494 35.625C195.494 35.6458 195.504 35.6562 195.525 35.6562C198.462 36.7188 201.067 37.75 203.337 38.75C203.754 38.9375 203.962 39.2604 203.962 39.7188C203.962 40.0729 203.806 40.3542 203.494 40.5625L202.775 41.0312C202.317 41.3438 201.796 41.5104 201.212 41.5312C201.171 41.5312 201.129 41.5312 201.087 41.5312C200.567 41.5312 200.077 41.4167 199.619 41.1875C197.848 40.2708 195.869 39.3958 193.681 38.5625C193.306 38.3958 193.077 38.1146 192.994 37.7188C192.973 37.6354 192.962 37.5625 192.962 37.5C192.962 37.1875 193.087 36.9167 193.337 36.6875L194.431 35.75C194.473 35.7292 194.483 35.6979 194.462 35.6562C194.442 35.6146 194.421 35.5938 194.4 35.5938H186.337C186.296 35.5938 186.265 35.6146 186.244 35.6562C186.223 35.6979 186.233 35.7292 186.275 35.75L187.431 36.6562C187.744 36.9062 187.9 37.2188 187.9 37.5938C187.9 38.0938 187.681 38.4479 187.244 38.6562C185.16 39.6979 182.796 40.6458 180.15 41.5C179.879 41.5833 179.608 41.625 179.337 41.625C179.087 41.625 178.827 41.5833 178.556 41.5C178.035 41.3333 177.577 41.0417 177.181 40.625C177.14 40.5625 177.087 40.5 177.025 40.4375C176.817 40.2083 176.712 39.9583 176.712 39.6875C176.712 39.5833 176.733 39.4792 176.775 39.375C176.879 38.9792 177.129 38.7188 177.525 38.5938C178.504 38.2812 179.525 37.9167 180.587 37.5C182.212 36.8958 183.587 36.3021 184.712 35.7188C184.754 35.6979 184.765 35.6771 184.744 35.6562C184.744 35.6146 184.733 35.5938 184.712 35.5938H181.525C181.025 35.5938 180.587 35.4167 180.212 35.0625C179.858 34.6875 179.681 34.25 179.681 33.75V20.875C179.681 20.375 179.858 19.9479 180.212 19.5938C180.587 19.2188 181.025 19.0312 181.525 19.0312H187.587C187.733 19.0312 187.827 18.9583 187.869 18.8125C187.952 18.3542 188.035 17.8542 188.119 17.3125C188.14 17.1667 188.067 17.0938 187.9 17.0938H178.65C178.171 17.0938 177.765 16.9271 177.431 16.5938C177.098 16.2604 176.931 15.8542 176.931 15.375C176.931 14.8958 177.098 14.4896 177.431 14.1562C177.765 13.8229 178.171 13.6562 178.65 13.6562H201.962C202.442 13.6562 202.848 13.8229 203.181 14.1562C203.515 14.4896 203.681 14.8958 203.681 15.375C203.681 15.8542 203.515 16.2604 203.181 16.5938C202.848 16.9271 202.442 17.0938 201.962 17.0938H192.837C192.671 17.0938 192.567 17.1667 192.525 17.3125C192.421 17.6667 192.254 18.1667 192.025 18.8125C192.004 18.875 192.004 18.9271 192.025 18.9688C192.067 19.0104 192.108 19.0312 192.15 19.0312H199.587C200.087 19.0312 200.515 19.2188 200.869 19.5938C201.244 19.9479 201.431 20.375 201.431 20.875V33.75ZM218.906 13.875C219.302 13.875 219.635 14.0208 219.906 14.3125C220.198 14.5833 220.344 14.9271 220.344 15.3438C220.344 15.7396 220.198 16.0833 219.906 16.375C219.635 16.6458 219.302 16.7812 218.906 16.7812H212.125C211.729 16.7812 211.385 16.6458 211.094 16.375C210.823 16.0833 210.688 15.7396 210.688 15.3438C210.688 14.9271 210.823 14.5833 211.094 14.3125C211.385 14.0208 211.729 13.875 212.125 13.875H218.906ZM220.062 18.1875C220.479 18.1875 220.833 18.3333 221.125 18.625C221.417 18.9167 221.562 19.2708 221.562 19.6875C221.562 20.1042 221.417 20.4583 221.125 20.75C220.833 21.0417 220.479 21.1875 220.062 21.1875H210.562C210.146 21.1875 209.792 21.0417 209.5 20.75C209.208 20.4583 209.062 20.1042 209.062 19.6875C209.062 19.2708 209.208 18.9167 209.5 18.625C209.792 18.3333 210.146 18.1875 210.562 18.1875H220.062ZM219 27C219.396 27 219.729 27.1458 220 27.4375C220.271 27.7083 220.406 28.0417 220.406 28.4375C220.406 28.8333 220.271 29.1667 220 29.4375C219.729 29.7083 219.396 29.8438 219 29.8438H211.969C211.594 29.8438 211.26 29.7083 210.969 29.4375C210.698 29.1667 210.562 28.8333 210.562 28.4375C210.562 28.0417 210.698 27.7083 210.969 27.4375C211.26 27.1458 211.594 27 211.969 27H219ZM232.531 30.25C232.552 30.2083 232.552 30.1667 232.531 30.125C232.51 30.0833 232.469 30.0625 232.406 30.0625H226.75C226.708 30.0625 226.667 30.0833 226.625 30.125C226.604 30.1667 226.604 30.2083 226.625 30.25C227.333 31.6667 228.281 32.9792 229.469 34.1875C229.573 34.3125 229.688 34.3125 229.812 34.1875C230.896 33.0625 231.802 31.75 232.531 30.25ZM216.844 38.125C217.01 38.125 217.094 38.0417 217.094 37.875V34.6562C217.094 34.5104 217.01 34.4375 216.844 34.4375H213.938C213.771 34.4375 213.688 34.5104 213.688 34.6562V37.875C213.688 38.0417 213.771 38.125 213.938 38.125H216.844ZM234.469 26.5938C234.635 26.5729 234.792 26.5625 234.938 26.5625C235.146 26.5625 235.365 26.5938 235.594 26.6562L236.281 26.9375C236.635 27.0625 236.896 27.2917 237.062 27.625C237.167 27.8333 237.219 28.0417 237.219 28.25C237.219 28.3958 237.198 28.5312 237.156 28.6562C236.177 31.7188 234.708 34.3438 232.75 36.5312C232.646 36.6562 232.667 36.7604 232.812 36.8438C234.188 37.6979 235.729 38.3958 237.438 38.9375C237.833 39.0833 238.083 39.3542 238.188 39.75C238.229 39.875 238.25 40 238.25 40.125C238.25 40.375 238.167 40.6146 238 40.8438C237.917 40.9688 237.833 41.0833 237.75 41.1875C237.417 41.6458 237 41.9688 236.5 42.1562C236.229 42.2604 235.969 42.3125 235.719 42.3125C235.49 42.3125 235.25 42.2604 235 42.1562C233.146 41.4479 231.438 40.5312 229.875 39.4062C229.75 39.3021 229.625 39.3021 229.5 39.4062C227.896 40.4896 226.104 41.4062 224.125 42.1562C223.896 42.2396 223.667 42.2812 223.438 42.2812C223.188 42.2812 222.927 42.2292 222.656 42.125C222.177 41.9167 221.802 41.5833 221.531 41.125C221.177 40.5208 220.833 40.0104 220.5 39.5938C220.479 39.5729 220.448 39.5729 220.406 39.5938C220.385 39.5938 220.375 39.6042 220.375 39.625C220.375 40.0417 220.229 40.3854 219.938 40.6562C219.667 40.9479 219.333 41.0938 218.938 41.0938H213.844C213.74 41.0938 213.688 41.1354 213.688 41.2188C213.688 41.5312 213.583 41.7917 213.375 42C213.167 42.2292 212.906 42.3438 212.594 42.3438H212.094C211.635 42.3438 211.25 42.1771 210.938 41.8438C210.625 41.5312 210.469 41.1562 210.469 40.7188V33.2812C210.469 32.7604 210.646 32.3229 211 31.9688C211.354 31.6146 211.792 31.4375 212.312 31.4375H218.531C219.052 31.4375 219.49 31.6146 219.844 31.9688C220.198 32.3229 220.375 32.7604 220.375 33.2812V39.1562C220.375 39.2188 220.396 39.2708 220.438 39.3125C220.5 39.3333 220.552 39.3438 220.594 39.3438C222.906 38.7396 224.927 37.8854 226.656 36.7812C226.781 36.6979 226.792 36.5938 226.688 36.4688C225.688 35.3646 224.802 34.125 224.031 32.75C223.885 32.5 223.812 32.25 223.812 32C223.812 31.8125 223.854 31.625 223.938 31.4375C224.125 30.9792 224.458 30.6771 224.938 30.5312L226.219 30.125C226.24 30.125 226.24 30.1146 226.219 30.0938C226.219 30.0729 226.208 30.0625 226.188 30.0625H223.688C223.229 30.0625 222.823 29.8958 222.469 29.5625C222.135 29.2083 221.969 28.8021 221.969 28.3438V27.5938C221.969 27.3229 222.062 27.0938 222.25 26.9062C222.458 26.7188 222.688 26.625 222.938 26.625C222.958 26.625 222.969 26.6146 222.969 26.5938C222.99 26.5729 223 26.5521 223 26.5312C222.312 25.7812 221.49 25.0729 220.531 24.4062C220.448 24.3438 220.406 24.3646 220.406 24.4688C220.406 24.7604 220.302 25.0104 220.094 25.2188C219.885 25.4271 219.635 25.5312 219.344 25.5312H212.031C211.615 25.5312 211.26 25.3958 210.969 25.125C210.698 24.8333 210.562 24.4896 210.562 24.0938C210.562 23.6771 210.698 23.3333 210.969 23.0625C211.26 22.7708 211.615 22.625 212.031 22.625H219.062C219.438 22.625 219.75 22.7604 220 23.0312C220.271 23.3021 220.406 23.625 220.406 24C220.406 24.0208 220.427 24.0417 220.469 24.0625C220.51 24.0833 220.542 24.0833 220.562 24.0625C221.75 23.2083 222.542 22.25 222.938 21.1875C223.333 20.1042 223.531 18.9062 223.531 17.5938V15.625C223.531 15.125 223.708 14.6979 224.062 14.3438C224.417 13.9688 224.854 13.7812 225.375 13.7812H232.406C232.906 13.7812 233.333 13.9688 233.688 14.3438C234.062 14.6979 234.25 15.125 234.25 15.625V20.9688C234.25 21.4062 234.271 21.6771 234.312 21.7812C234.354 21.8854 234.469 21.9375 234.656 21.9375H235.469C235.635 21.9375 235.75 21.8438 235.812 21.6562C235.896 21.4688 235.958 21.0625 236 20.4375C236.021 20.0833 236.188 19.8021 236.5 19.5938C236.688 19.4896 236.875 19.4375 237.062 19.4375C237.229 19.4375 237.385 19.4688 237.531 19.5312C238.01 19.7396 238.385 20.0417 238.656 20.4375C238.865 20.7708 238.969 21.1146 238.969 21.4688C238.969 21.5729 238.958 21.6771 238.938 21.7812C238.729 23.0521 238.385 23.9375 237.906 24.4375C237.448 24.9375 236.76 25.1875 235.844 25.1875H233.969C232.698 25.1875 231.833 24.8958 231.375 24.3125C230.917 23.7083 230.688 22.6146 230.688 21.0312V17.375C230.688 17.2292 230.615 17.1562 230.469 17.1562H227.344C227.177 17.1562 227.094 17.2292 227.094 17.375V17.6875C227.094 21.75 225.833 24.6875 223.312 26.5C223.292 26.5208 223.281 26.5521 223.281 26.5938C223.302 26.6146 223.333 26.625 223.375 26.625H234.312C234.375 26.625 234.427 26.6146 234.469 26.5938ZM253.1 13.875C253.496 13.875 253.829 14.0208 254.1 14.3125C254.392 14.5833 254.538 14.9271 254.538 15.3438C254.538 15.7396 254.392 16.0833 254.1 16.375C253.829 16.6458 253.496 16.7812 253.1 16.7812H245.819C245.423 16.7812 245.079 16.6458 244.788 16.375C244.517 16.0833 244.381 15.7396 244.381 15.3438C244.381 14.9271 244.517 14.5833 244.788 14.3125C245.079 14.0208 245.423 13.875 245.819 13.875H253.1ZM254.225 18.1875C254.642 18.1875 254.996 18.3333 255.288 18.625C255.6 18.9167 255.756 19.2708 255.756 19.6875C255.756 20.1042 255.6 20.4583 255.288 20.75C254.996 21.0417 254.642 21.1875 254.225 21.1875H244.163C243.746 21.1875 243.392 21.0417 243.1 20.75C242.808 20.4583 242.663 20.1042 242.663 19.6875C242.663 19.2708 242.808 18.9167 243.1 18.625C243.392 18.3333 243.746 18.1875 244.163 18.1875H254.225ZM251.038 34.6562C251.038 34.5104 250.965 34.4375 250.819 34.4375H247.631C247.465 34.4375 247.381 34.5104 247.381 34.6562V37.875C247.381 38.0417 247.465 38.125 247.631 38.125H250.819C250.965 38.125 251.038 38.0417 251.038 37.875V34.6562ZM252.538 31.4375C253.038 31.4375 253.465 31.6146 253.819 31.9688C254.194 32.3229 254.381 32.7604 254.381 33.2812V39.25C254.381 39.75 254.194 40.1771 253.819 40.5312C253.465 40.9062 253.038 41.0938 252.538 41.0938H247.538C247.433 41.0938 247.381 41.1354 247.381 41.2188C247.381 41.5312 247.277 41.7917 247.069 42C246.86 42.2292 246.6 42.3438 246.288 42.3438H245.756C245.298 42.3438 244.902 42.1771 244.569 41.8438C244.256 41.5312 244.1 41.1458 244.1 40.6875V33.2812C244.1 32.7604 244.277 32.3229 244.631 31.9688C244.985 31.6146 245.423 31.4375 245.944 31.4375H252.538ZM245.631 29.8438C245.235 29.8438 244.892 29.7083 244.6 29.4375C244.329 29.1667 244.194 28.8333 244.194 28.4375C244.194 28.0417 244.329 27.7083 244.6 27.4375C244.892 27.1458 245.235 27 245.631 27H253.038C253.433 27 253.767 27.1458 254.038 27.4375C254.329 27.7083 254.475 28.0417 254.475 28.4375C254.475 28.8333 254.329 29.1667 254.038 29.4375C253.767 29.7083 253.433 29.8438 253.038 29.8438H245.631ZM245.663 25.5312C245.246 25.5312 244.892 25.3958 244.6 25.125C244.329 24.8333 244.194 24.4896 244.194 24.0938C244.194 23.6771 244.329 23.3333 244.6 23.0625C244.892 22.7708 245.246 22.625 245.663 22.625H253.006C253.402 22.625 253.746 22.7708 254.038 23.0625C254.329 23.3333 254.475 23.6771 254.475 24.0938C254.475 24.4896 254.329 24.8333 254.038 25.125C253.746 25.3958 253.402 25.5312 253.006 25.5312H245.663ZM270.975 23.5938C271.496 23.5938 271.933 23.7708 272.288 24.125C272.642 24.4792 272.819 24.9167 272.819 25.4375V25.5312C272.819 26.0312 272.642 26.4688 272.288 26.8438C271.933 27.1979 271.496 27.375 270.975 27.375H266.381C266.215 27.375 266.131 27.4479 266.131 27.5938V40.9375C266.131 41.4583 265.954 41.8958 265.6 42.25C265.246 42.6042 264.808 42.7812 264.288 42.7812H264.163C263.642 42.7812 263.204 42.6042 262.85 42.25C262.496 41.8958 262.319 41.4583 262.319 40.9375V27.5938C262.319 27.4479 262.235 27.375 262.069 27.375H257.475C256.954 27.375 256.517 27.1979 256.163 26.8438C255.808 26.4688 255.631 26.0312 255.631 25.5312V25.4375C255.631 24.9167 255.808 24.4792 256.163 24.125C256.517 23.7708 256.954 23.5938 257.475 23.5938H262.069C262.235 23.5938 262.319 23.5104 262.319 23.3438V14.875C262.319 14.3542 262.496 13.9167 262.85 13.5625C263.204 13.2083 263.642 13.0312 264.163 13.0312H264.288C264.808 13.0312 265.246 13.2083 265.6 13.5625C265.954 13.9167 266.131 14.3542 266.131 14.875V23.3438C266.131 23.5104 266.215 23.5938 266.381 23.5938H270.975Z" fill="white"/>
</svg>
