<svg width="22" height="22" viewBox="0 0 22 22" fill="none" xmlns="http://www.w3.org/2000/svg">
<g clip-path="url(#clip0_15_235)">
<path d="M8.25003 10.0833C10.2751 10.0833 11.9167 8.44171 11.9167 6.41667C11.9167 4.39162 10.2751 2.75 8.25003 2.75C6.22498 2.75 4.58336 4.39162 4.58336 6.41667C4.58336 8.44171 6.22498 10.0833 8.25003 10.0833Z" stroke="white" stroke-width="2.5" stroke-linecap="round" stroke-linejoin="round"/>
<path d="M2.75 19.25V17.4167C2.75 16.4442 3.13631 15.5116 3.82394 14.8239C4.51158 14.1363 5.44421 13.75 6.41667 13.75H10.0833C11.0558 13.75 11.9884 14.1363 12.6761 14.8239C13.3637 15.5116 13.75 16.4442 13.75 17.4167V19.25" stroke="white" stroke-width="2.5" stroke-linecap="round" stroke-linejoin="round"/>
<path d="M15.5406 9.62528C15.9694 9.38656 16.3488 9.06259 16.6537 8.66983C17.1529 8.02669 17.4239 7.23569 17.4239 6.42153C17.4239 5.60738 17.1529 4.81638 16.6537 4.17323C16.2536 3.65778 15.7251 3.26081 15.125 3.01953" stroke="white" stroke-width="2.5" stroke-linecap="round" stroke-linejoin="round"/>
<path d="M19.25 19.2502V17.4169C19.2453 16.6076 18.9731 15.8226 18.4757 15.1842C17.9782 14.5459 17.2836 14.09 16.5 13.8877" stroke="white" stroke-width="2.5" stroke-linecap="round" stroke-linejoin="round"/>
</g>
<defs>
<clipPath id="clip0_15_235">
<rect width="22" height="22" fill="white"/>
</clipPath>
</defs>
</svg>
