<svg width="136" height="79" viewBox="0 0 136 79" fill="none" xmlns="http://www.w3.org/2000/svg">
<path d="M10.323 15.8438C10.323 15.9531 10.3855 16.0078 10.5105 16.0078H14.1667C14.2761 16.0078 14.3308 15.9531 14.3308 15.8438V14.625C14.3308 14.5 14.2761 14.4375 14.1667 14.4375H10.5105C10.3855 14.4375 10.323 14.5 10.323 14.625V15.8438ZM14.3308 11.0156C14.3308 10.9062 14.2761 10.8516 14.1667 10.8516H10.5105C10.3855 10.8516 10.323 10.9062 10.323 11.0156V12.1641C10.323 12.2734 10.3855 12.3281 10.5105 12.3281H14.1667C14.2761 12.3281 14.3308 12.2734 14.3308 12.1641V11.0156ZM15.7136 8.4375C16.0886 8.4375 16.4089 8.57812 16.6746 8.85938C16.9558 9.125 17.0964 9.44531 17.0964 9.82031V20.25C17.0964 20.8906 17.0183 21.3828 16.8621 21.7266C16.7058 22.0859 16.4324 22.3672 16.0417 22.5703C15.5886 22.8047 14.9089 22.9453 14.0027 22.9922C13.9714 22.9922 13.9402 22.9922 13.9089 22.9922C13.5808 22.9922 13.2761 22.8828 12.9949 22.6641C12.6824 22.4453 12.4558 22.1484 12.3152 21.7734C12.2839 21.6641 12.2683 21.5547 12.2683 21.4453C12.2683 21.2891 12.3152 21.1406 12.4089 21C12.5652 20.75 12.7917 20.625 13.0886 20.625H13.2996C13.5964 20.625 13.8152 20.625 13.9558 20.625C14.0964 20.625 14.1902 20.5938 14.2371 20.5312C14.2996 20.4688 14.3308 20.3672 14.3308 20.2266V18.2812C14.3308 18.1562 14.2761 18.0938 14.1667 18.0938H10.5105C10.3855 18.0938 10.323 18.1562 10.323 18.2812V21.5859C10.323 21.9609 10.1902 22.2812 9.92456 22.5469C9.65894 22.8125 9.33862 22.9453 8.96362 22.9453C8.58862 22.9453 8.26831 22.8125 8.00269 22.5469C7.73706 22.2812 7.60425 21.9609 7.60425 21.5859V9.82031C7.60425 9.44531 7.73706 9.125 8.00269 8.85938C8.28394 8.57812 8.61206 8.4375 8.98706 8.4375H15.7136ZM23.9402 19.8984V9.39844C23.9402 9.02344 24.073 8.70312 24.3386 8.4375C24.6042 8.15625 24.9324 8.01562 25.323 8.01562H25.3699C25.7449 8.01562 26.0652 8.15625 26.3308 8.4375C26.6121 8.70312 26.7527 9.02344 26.7527 9.39844V19.9453C26.7527 20.6797 26.6589 21.2344 26.4714 21.6094C26.2996 21.9844 25.9792 22.2891 25.5105 22.5234C24.9324 22.7891 24.0808 22.9453 22.9558 22.9922C22.9402 22.9922 22.9246 22.9922 22.9089 22.9922C22.5339 22.9922 22.198 22.875 21.9011 22.6406C21.573 22.3906 21.3308 22.0625 21.1746 21.6562C21.1746 21.625 21.1667 21.5938 21.1511 21.5625C21.1042 21.4375 21.0808 21.3203 21.0808 21.2109C21.0808 21.0391 21.1277 20.875 21.2214 20.7188C21.3777 20.4688 21.6121 20.3438 21.9246 20.3438C22.1746 20.3438 22.4011 20.3438 22.6042 20.3438C22.9636 20.3438 23.2371 20.3359 23.4246 20.3203C23.6277 20.3203 23.7605 20.2969 23.823 20.25C23.9011 20.1875 23.9402 20.0703 23.9402 19.8984ZM19.5339 9.07031C19.7996 8.82031 20.1121 8.69531 20.4714 8.69531C20.8308 8.69531 21.1355 8.82031 21.3855 9.07031C21.6511 9.32031 21.7839 9.625 21.7839 9.98438V17.1797C21.7839 17.5391 21.6511 17.8438 21.3855 18.0938C21.1355 18.3438 20.8308 18.4688 20.4714 18.4688C20.1121 18.4688 19.7996 18.3438 19.5339 18.0938C19.2839 17.8438 19.1589 17.5391 19.1589 17.1797V9.98438C19.1589 9.625 19.2839 9.32031 19.5339 9.07031ZM23.2371 4.07812C23.2214 4.10938 23.2214 4.14062 23.2371 4.17188C23.2527 4.20312 23.2761 4.21875 23.3074 4.21875H26.7292C27.0886 4.21875 27.3933 4.34375 27.6433 4.59375C27.8933 4.84375 28.0183 5.14844 28.0183 5.50781C28.0183 5.86719 27.8933 6.17188 27.6433 6.42188C27.3933 6.67188 27.0886 6.79688 26.7292 6.79688H7.58081C7.22144 6.79688 6.91675 6.67188 6.66675 6.42188C6.41675 6.17188 6.29175 5.86719 6.29175 5.50781C6.29175 5.14844 6.41675 4.84375 6.66675 4.59375C6.91675 4.34375 7.22144 4.21875 7.58081 4.21875H11.2371C11.2683 4.21875 11.2917 4.20312 11.3074 4.17188C11.3386 4.14062 11.3464 4.10938 11.3308 4.07812C11.0808 3.625 10.7839 3.15625 10.4402 2.67188C10.3152 2.5 10.2527 2.30469 10.2527 2.08594C10.2527 1.99219 10.2683 1.89062 10.2996 1.78125C10.3933 1.45312 10.5964 1.23437 10.9089 1.125L11.0027 1.10156C11.2371 1.02344 11.4636 0.984375 11.6824 0.984375C11.8699 0.984375 12.0496 1.00781 12.2214 1.05469C12.6277 1.16406 12.9636 1.375 13.2292 1.6875C13.4949 2.03125 13.7292 2.36719 13.9324 2.69531C14.0417 2.85156 14.0964 3.02344 14.0964 3.21094C14.0964 3.32031 14.073 3.4375 14.0261 3.5625C13.9011 3.85938 13.6824 4.0625 13.3699 4.17188C13.3699 4.17188 13.3699 4.17969 13.3699 4.19531C13.3699 4.21094 13.3777 4.21875 13.3933 4.21875H19.7214C19.8464 4.21875 19.9402 4.17188 20.0027 4.07812C20.4402 3.39062 20.8621 2.64844 21.2683 1.85156C21.4558 1.49219 21.7292 1.23437 22.0886 1.07812C22.3074 0.96875 22.5261 0.914062 22.7449 0.914062C22.9011 0.914062 23.0496 0.9375 23.1902 0.984375L23.6355 1.125C23.9792 1.21875 24.2058 1.42969 24.3152 1.75781C24.3621 1.88281 24.3855 2.00781 24.3855 2.13281C24.3855 2.32031 24.3308 2.5 24.2214 2.67188C23.9402 3.09375 23.6121 3.5625 23.2371 4.07812ZM50.4527 2.22656C50.7183 1.96094 51.0386 1.82812 51.4136 1.82812C51.7886 1.82812 52.1011 1.96094 52.3511 2.22656C52.6167 2.49219 52.7496 2.8125 52.7496 3.1875V6.5625C52.7496 6.9375 52.6167 7.26562 52.3511 7.54688C52.0855 7.8125 51.7574 7.94531 51.3667 7.94531H41.5933C41.2027 7.94531 40.8746 7.8125 40.6089 7.54688C40.3433 7.26562 40.2105 6.9375 40.2105 6.5625V3.14062C40.2105 2.78125 40.3355 2.47656 40.5855 2.22656C40.8511 1.96094 41.1636 1.82812 41.523 1.82812C41.8824 1.82812 42.1871 1.96094 42.4371 2.22656C42.6871 2.47656 42.8121 2.78125 42.8121 3.14062V5.32031C42.8121 5.42969 42.8746 5.48438 42.9996 5.48438H44.8042C44.9292 5.48438 44.9917 5.42969 44.9917 5.32031V2.10938C44.9917 1.73438 45.1246 1.41406 45.3902 1.14844C45.6558 0.882812 45.9761 0.75 46.3511 0.75C46.7261 0.75 47.0464 0.882812 47.3121 1.14844C47.5777 1.41406 47.7105 1.73438 47.7105 2.10938V5.32031C47.7105 5.42969 47.773 5.48438 47.898 5.48438H49.8667C49.9917 5.48438 50.0542 5.42969 50.0542 5.32031V3.1875C50.0542 2.8125 50.1871 2.49219 50.4527 2.22656ZM37.7964 5.22656C38.1558 5.22656 38.4605 5.35156 38.7105 5.60156C38.9605 5.85156 39.0855 6.15625 39.0855 6.51562C39.0855 6.85938 38.9605 7.15625 38.7105 7.40625C38.4605 7.65625 38.1558 7.78125 37.7964 7.78125H32.7574C32.4136 7.78125 32.1167 7.65625 31.8667 7.40625C31.6167 7.15625 31.4917 6.85938 31.4917 6.51562C31.4917 6.15625 31.6167 5.85156 31.8667 5.60156C32.1167 5.35156 32.4136 5.22656 32.7574 5.22656H33.9058C34.0308 5.22656 34.0933 5.17188 34.0933 5.0625V2.29688C34.0933 1.9375 34.2183 1.63281 34.4683 1.38281C34.7183 1.13281 35.0152 1.00781 35.3589 1.00781C35.7183 1.00781 36.023 1.13281 36.273 1.38281C36.523 1.63281 36.648 1.9375 36.648 2.29688V5.0625C36.648 5.17188 36.7105 5.22656 36.8355 5.22656H37.7964ZM34.6792 14.4375C34.6792 14.7344 34.5855 15 34.398 15.2344C34.1792 15.4844 33.9136 15.6406 33.6011 15.7031C33.5386 15.7188 33.4761 15.7266 33.4136 15.7266C33.1949 15.7266 32.9996 15.6562 32.8277 15.5156C32.5933 15.3125 32.4683 15.0625 32.4527 14.7656C32.3902 13.2344 32.2183 11.6016 31.9371 9.86719C31.9371 9.80469 31.9371 9.74219 31.9371 9.67969C31.9371 9.46094 31.9996 9.25 32.1246 9.04688C32.2964 8.8125 32.523 8.66406 32.8042 8.60156C32.8824 8.58594 32.9605 8.57812 33.0386 8.57812C33.2417 8.57812 33.4371 8.64062 33.6246 8.76562C33.8746 8.9375 34.0308 9.16406 34.0933 9.44531C34.4839 11.6016 34.6792 13.2656 34.6792 14.4375ZM37.4683 16.1484C37.4527 16.1953 37.4605 16.2344 37.4917 16.2656C37.523 16.2812 37.5542 16.2891 37.5855 16.2891L38.1949 16.1484C38.2886 16.1172 38.3824 16.1016 38.4761 16.1016C38.6949 16.1016 38.9058 16.1797 39.1089 16.3359C39.3902 16.5234 39.5464 16.7891 39.5777 17.1328C39.5933 17.1797 39.6011 17.2344 39.6011 17.2969C39.6011 17.5938 39.5152 17.8672 39.3433 18.1172C39.1402 18.4141 38.8589 18.6094 38.4996 18.7031C37.2496 19.0312 35.4058 19.4922 32.9683 20.0859C32.8433 20.1172 32.7261 20.1328 32.6167 20.1328C32.3824 20.1328 32.148 20.0625 31.9136 19.9219C31.6011 19.7344 31.398 19.4531 31.3042 19.0781L31.2808 18.9609C31.2652 18.8672 31.2574 18.7656 31.2574 18.6562C31.2574 18.4062 31.3355 18.1719 31.4917 17.9531C31.6949 17.6406 31.9839 17.4453 32.3589 17.3672C33.0777 17.2422 34.2886 16.9922 35.9917 16.6172C35.9917 16.6016 35.9917 16.5938 35.9917 16.5938C35.773 16.5312 35.6011 16.4062 35.4761 16.2188C35.3667 16.0312 35.3355 15.8281 35.3824 15.6094C35.7574 13.7031 36.0464 11.6875 36.2496 9.5625C36.2808 9.21875 36.4371 8.94531 36.7183 8.74219C36.9371 8.57031 37.1714 8.48438 37.4214 8.48438C37.4996 8.48438 37.5777 8.5 37.6558 8.53125C38.0152 8.59375 38.3042 8.78125 38.523 9.09375C38.6792 9.3125 38.7574 9.55469 38.7574 9.82031C38.7574 9.91406 38.7496 10 38.7339 10.0781C38.2808 12.5781 37.8589 14.6016 37.4683 16.1484ZM50.5699 20.6016V15.8906C50.5699 15.7812 50.5152 15.7266 50.4058 15.7266H49.4214C49.3121 15.7266 49.2574 15.7812 49.2574 15.8906V20.6484C49.2574 20.7734 49.3121 20.8359 49.4214 20.8359C49.6871 20.8516 49.9839 20.8594 50.3121 20.8594C50.4214 20.8594 50.4917 20.8438 50.523 20.8125C50.5542 20.7656 50.5699 20.6953 50.5699 20.6016ZM53.1246 9.58594C53.3746 9.83594 53.4996 10.1328 53.4996 10.4766C53.4996 10.8203 53.3746 11.1172 53.1246 11.3672C52.8902 11.6172 52.5933 11.7422 52.2339 11.7422H48.0152C47.8902 11.7422 47.8121 11.7969 47.7808 11.9062L47.2652 13.1719C47.2496 13.2188 47.2496 13.2578 47.2652 13.2891C47.2964 13.3203 47.3277 13.3359 47.3589 13.3359H51.7183C52.0933 13.3359 52.4136 13.4766 52.6792 13.7578C52.9605 14.0234 53.1011 14.3438 53.1011 14.7188V20.625C53.1011 21.1875 53.0464 21.625 52.9371 21.9375C52.8433 22.25 52.6402 22.5 52.3277 22.6875C52.0308 22.8594 51.6714 22.9766 51.2496 23.0391C51.1871 23.0547 51.1246 23.0625 51.0621 23.0625C50.7496 23.0625 50.4683 22.9609 50.2183 22.7578C49.9058 22.5078 49.6871 22.1797 49.5621 21.7734C49.4839 21.5391 49.4058 21.3281 49.3277 21.1406C49.3121 21.125 49.2964 21.1172 49.2808 21.1172C49.2652 21.1172 49.2574 21.125 49.2574 21.1406V21.7266C49.2574 22.0234 49.148 22.2734 48.9292 22.4766C48.7261 22.6953 48.4761 22.8047 48.1792 22.8047C47.8824 22.8047 47.6246 22.6953 47.4058 22.4766C47.2027 22.2734 47.1011 22.0234 47.1011 21.7266V15.8906C47.1011 15.7812 47.0386 15.7266 46.9136 15.7266H45.9761C45.8511 15.7266 45.7886 15.7812 45.7886 15.8906V21.7266C45.7886 22.0234 45.6792 22.2734 45.4605 22.4766C45.2574 22.6953 45.0074 22.8047 44.7105 22.8047C44.4136 22.8047 44.1558 22.6953 43.9371 22.4766C43.7339 22.2734 43.6324 22.0234 43.6324 21.7266V15.8906C43.6324 15.7812 43.5777 15.7266 43.4683 15.7266H42.6011C42.4761 15.7266 42.4136 15.7812 42.4136 15.8906V21.75C42.4136 22.0938 42.2886 22.3906 42.0386 22.6406C41.7886 22.8906 41.4839 23.0156 41.1246 23.0156C40.7808 23.0156 40.4839 22.8906 40.2339 22.6406C39.9996 22.3906 39.8824 22.0938 39.8824 21.75V14.7188C39.8824 14.3438 40.0152 14.0234 40.2808 13.7578C40.5464 13.4766 40.8746 13.3359 41.2652 13.3359H44.1246C44.2496 13.3359 44.3199 13.2812 44.3355 13.1719C44.3511 13.0781 44.3746 12.9531 44.4058 12.7969C44.4527 12.625 44.4839 12.4688 44.4996 12.3281C44.5308 12.1719 44.5621 12.0312 44.5933 11.9062C44.6089 11.7969 44.5621 11.7422 44.4527 11.7422H40.6324C40.273 11.7422 39.9683 11.6172 39.7183 11.3672C39.4839 11.1172 39.3667 10.8203 39.3667 10.4766C39.3667 10.1328 39.4839 9.83594 39.7183 9.58594C39.9683 9.33594 40.273 9.21094 40.6324 9.21094H52.2339C52.5933 9.21094 52.8902 9.33594 53.1246 9.58594ZM69.1371 17.8594C69.1371 17.9688 69.1917 18.0234 69.3011 18.0234H77.1527C77.5277 18.0234 77.848 18.1641 78.1136 18.4453C78.3949 18.7109 78.5355 19.0312 78.5355 19.4062V19.5C78.5355 19.875 78.3949 20.2031 78.1136 20.4844C77.848 20.75 77.5277 20.8828 77.1527 20.8828H58.098C57.723 20.8828 57.3949 20.75 57.1136 20.4844C56.848 20.2031 56.7152 19.875 56.7152 19.5V19.4062C56.7152 19.0312 56.848 18.7109 57.1136 18.4453C57.3949 18.1641 57.723 18.0234 58.098 18.0234H65.6917C65.8011 18.0234 65.8558 17.9688 65.8558 17.8594V5.76562C65.8558 5.65625 65.8011 5.60156 65.6917 5.60156H59.3871C59.0121 5.60156 58.6839 5.46875 58.4027 5.20312C58.1371 4.92188 58.0042 4.59375 58.0042 4.21875V4.00781C58.0042 3.63281 58.1371 3.3125 58.4027 3.04688C58.6839 2.76562 59.0121 2.625 59.3871 2.625H75.8167C76.1917 2.625 76.5121 2.76562 76.7777 3.04688C77.0589 3.3125 77.1996 3.63281 77.1996 4.00781V4.21875C77.1996 4.59375 77.0589 4.92188 76.7777 5.20312C76.5121 5.46875 76.1917 5.60156 75.8167 5.60156H69.3011C69.1917 5.60156 69.1371 5.65625 69.1371 5.76562V17.8594ZM99.8449 7.26562C99.9542 7.26562 100.009 7.21094 100.009 7.10156V4.125C100.009 4.01562 99.9542 3.96094 99.8449 3.96094H94.5949C94.4855 3.96094 94.4308 4.01562 94.4308 4.125V7.10156C94.4308 7.21094 94.4855 7.26562 94.5949 7.26562H99.8449ZM101.415 1.57031C101.79 1.57031 102.11 1.70312 102.376 1.96875C102.657 2.23438 102.798 2.5625 102.798 2.95312V8.29688C102.798 8.67188 102.657 9 102.376 9.28125C102.11 9.54688 101.79 9.67969 101.415 9.67969H93.1652C92.7902 9.67969 92.4621 9.54688 92.1808 9.28125C91.9152 9 91.7824 8.67188 91.7824 8.29688V2.95312C91.7824 2.5625 91.9152 2.23438 92.1808 1.96875C92.4621 1.70312 92.7902 1.57031 93.1652 1.57031H101.415ZM90.1417 12.8672C90.4386 13.1953 90.5871 13.5781 90.5871 14.0156C90.5871 14.3906 90.4855 14.7266 90.2824 15.0234C90.0949 15.2578 89.8605 15.375 89.5792 15.375C89.5636 15.375 89.5402 15.3672 89.5089 15.3516C89.1964 15.3359 88.9542 15.1875 88.7824 14.9062C88.5792 14.5781 88.3527 14.2266 88.1027 13.8516C88.0871 13.8359 88.0636 13.8359 88.0324 13.8516C88.0167 13.8516 88.0089 13.8594 88.0089 13.875V21.6797C88.0089 22.0703 87.8761 22.3984 87.6105 22.6641C87.3449 22.9297 87.0167 23.0625 86.6261 23.0625C86.2511 23.0625 85.923 22.9297 85.6417 22.6641C85.3761 22.3984 85.2433 22.0703 85.2433 21.6797V14.625C85.2433 14.6094 85.2355 14.6016 85.2199 14.6016C85.2042 14.5859 85.1964 14.5859 85.1964 14.6016C84.6339 15.9297 84.0402 17.0859 83.4152 18.0703C83.2902 18.2891 83.1027 18.3984 82.8527 18.3984C82.8214 18.3984 82.7824 18.3906 82.7355 18.375C82.4542 18.3438 82.2433 18.1953 82.1027 17.9297C82.0714 17.8516 82.0324 17.7734 81.9855 17.6953C81.8292 17.3828 81.7511 17.0469 81.7511 16.6875C81.7511 16.6406 81.7511 16.5859 81.7511 16.5234C81.7824 16.1016 81.9152 15.7266 82.1496 15.3984C83.1496 13.9453 84.0324 12.2188 84.798 10.2188C84.8136 10.1719 84.8058 10.1328 84.7746 10.1016C84.7589 10.0703 84.7355 10.0547 84.7042 10.0547H83.1574C82.7824 10.0547 82.4621 9.92969 82.1964 9.67969C81.9464 9.41406 81.8214 9.10156 81.8214 8.74219C81.8214 8.36719 81.9464 8.04688 82.1964 7.78125C82.4621 7.51562 82.7824 7.38281 83.1574 7.38281H85.0792C85.1886 7.38281 85.2433 7.32812 85.2433 7.21875V4.78125C85.2433 4.67188 85.1886 4.625 85.0792 4.64062C84.5011 4.75 83.9699 4.84375 83.4855 4.92188C83.4074 4.9375 83.3371 4.94531 83.2746 4.94531C83.0246 4.94531 82.7902 4.875 82.5714 4.73438C82.3058 4.54688 82.1105 4.29688 81.9855 3.98438C81.9542 3.85938 81.9386 3.74219 81.9386 3.63281C81.9386 3.47656 81.9777 3.32031 82.0558 3.16406C82.1808 2.89844 82.3917 2.74219 82.6886 2.69531C84.673 2.30469 86.3371 1.875 87.6808 1.40625C87.9152 1.32812 88.1496 1.28906 88.3839 1.28906C88.5402 1.28906 88.7042 1.3125 88.8761 1.35938C89.2824 1.45312 89.6183 1.64844 89.8839 1.94531L89.9542 2.0625C90.1261 2.23438 90.2121 2.42969 90.2121 2.64844C90.2121 2.74219 90.1964 2.82812 90.1652 2.90625C90.0871 3.23438 89.8839 3.45312 89.5558 3.5625C89.1027 3.70312 88.6417 3.83594 88.173 3.96094C88.0636 3.99219 88.0089 4.07031 88.0089 4.19531V7.21875C88.0089 7.32812 88.0714 7.38281 88.1964 7.38281H89.2511C89.6261 7.38281 89.9386 7.51562 90.1886 7.78125C90.4542 8.04688 90.5871 8.36719 90.5871 8.74219C90.5871 9.10156 90.4542 9.41406 90.1886 9.67969C89.9386 9.92969 89.6261 10.0547 89.2511 10.0547H88.1964C88.0714 10.0547 88.0089 10.1172 88.0089 10.2422V10.5703C88.0089 10.6953 88.0558 10.7969 88.1496 10.875C88.5714 11.2344 89.2355 11.8984 90.1417 12.8672ZM98.6261 19.8984C98.6261 20.0078 98.6808 20.0625 98.7902 20.0625H102.704C103.048 20.0625 103.337 20.1875 103.571 20.4375C103.821 20.6719 103.946 20.9609 103.946 21.3047C103.946 21.6484 103.821 21.9453 103.571 22.1953C103.337 22.4453 103.048 22.5703 102.704 22.5703H91.3371C90.9933 22.5703 90.6964 22.4453 90.4464 22.1953C90.1964 21.9453 90.0714 21.6484 90.0714 21.3047C90.0714 20.9609 90.1964 20.6719 90.4464 20.4375C90.6964 20.1875 90.9933 20.0625 91.3371 20.0625H95.6261C95.7355 20.0625 95.7902 20.0078 95.7902 19.8984V18.1172C95.7902 18.0078 95.7355 17.9531 95.6261 17.9531H92.7902C92.4621 17.9531 92.1808 17.8359 91.9464 17.6016C91.7121 17.3672 91.5949 17.0859 91.5949 16.7578C91.5949 16.4297 91.7121 16.1484 91.9464 15.9141C92.1808 15.6797 92.4621 15.5625 92.7902 15.5625H95.6261C95.7355 15.5625 95.7902 15.5 95.7902 15.375V13.7344C95.7902 13.625 95.7355 13.5703 95.6261 13.5703H92.2277C91.8996 13.5703 91.6105 13.4531 91.3605 13.2188C91.1261 12.9688 91.0089 12.6797 91.0089 12.3516C91.0089 12.0078 91.1261 11.7188 91.3605 11.4844C91.6105 11.2344 91.8996 11.1094 92.2277 11.1094H102.212C102.556 11.1094 102.845 11.2344 103.079 11.4844C103.329 11.7188 103.454 12.0078 103.454 12.3516C103.454 12.6797 103.329 12.9688 103.079 13.2188C102.845 13.4531 102.556 13.5703 102.212 13.5703H98.7902C98.6808 13.5703 98.6261 13.625 98.6261 13.7344V15.375C98.6261 15.5 98.6808 15.5625 98.7902 15.5625H101.673C102.001 15.5625 102.282 15.6797 102.517 15.9141C102.751 16.1484 102.868 16.4297 102.868 16.7578C102.868 17.0859 102.751 17.3672 102.517 17.6016C102.282 17.8359 102.001 17.9531 101.673 17.9531H98.7902C98.6808 17.9531 98.6261 18.0078 98.6261 18.1172V19.8984ZM113.068 15.5859C113.068 15.4609 113.014 15.3984 112.904 15.3984H110.467C110.342 15.3984 110.279 15.4609 110.279 15.5859V18.1641C110.279 18.2734 110.342 18.3281 110.467 18.3281H112.904C113.014 18.3281 113.068 18.2734 113.068 18.1641V15.5859ZM112.646 9.04688C112.771 9.04688 112.834 8.99219 112.834 8.88281V6.77344C112.834 6.66406 112.771 6.60938 112.646 6.60938H110.467C110.342 6.60938 110.279 6.66406 110.279 6.77344V8.88281C110.279 8.99219 110.342 9.04688 110.467 9.04688H112.646ZM110.467 11.4375C110.342 11.4375 110.279 11.5 110.279 11.625V12.8438C110.279 12.9531 110.342 13.0078 110.467 13.0078H114.217C114.592 13.0078 114.912 13.1484 115.178 13.4297C115.459 13.6953 115.6 14.0156 115.6 14.3906V19.3594C115.6 19.7344 115.459 20.0625 115.178 20.3438C114.912 20.6094 114.592 20.7422 114.217 20.7422H110.443C110.334 20.7422 110.279 20.7969 110.279 20.9062V20.9531C110.279 21.3125 110.154 21.6094 109.904 21.8438C109.67 22.0938 109.373 22.2188 109.014 22.2188C108.67 22.2188 108.373 22.0938 108.123 21.8438C107.889 21.6094 107.771 21.3125 107.771 20.9531V5.57812C107.771 5.20312 107.904 4.88281 108.17 4.61719C108.436 4.33594 108.764 4.19531 109.154 4.19531H109.576C109.701 4.19531 109.779 4.14062 109.811 4.03125C109.982 3.29688 110.123 2.63281 110.232 2.03906C110.311 1.66406 110.498 1.35156 110.795 1.10156C111.061 0.882812 111.357 0.773438 111.686 0.773438C111.717 0.773438 111.756 0.78125 111.803 0.796875L112.225 0.820312C112.568 0.851563 112.834 1.01563 113.021 1.3125C113.146 1.48438 113.209 1.66406 113.209 1.85156C113.209 1.97656 113.186 2.10156 113.139 2.22656C112.889 2.88281 112.639 3.48438 112.389 4.03125C112.373 4.07812 112.373 4.11719 112.389 4.14844C112.42 4.17969 112.459 4.19531 112.506 4.19531H113.959C114.35 4.19531 114.678 4.33594 114.943 4.61719C115.209 4.88281 115.342 5.20312 115.342 5.57812V10.0547C115.342 10.4453 115.209 10.7734 114.943 11.0391C114.678 11.3047 114.35 11.4375 113.959 11.4375H110.467ZM128.607 2.15625C128.857 2.40625 128.982 2.71094 128.982 3.07031C128.982 3.42969 128.857 3.73438 128.607 3.98438C128.357 4.23438 128.053 4.35938 127.693 4.35938H124.014C123.904 4.35938 123.85 4.42188 123.85 4.54688V6.32812C123.85 6.45312 123.904 6.51562 124.014 6.51562H126.99C127.381 6.51562 127.709 6.64844 127.975 6.91406C128.24 7.17969 128.373 7.50781 128.373 7.89844V16.875C128.373 17.4688 128.311 17.9375 128.186 18.2812C128.076 18.625 127.857 18.8984 127.529 19.1016C127.17 19.3359 126.686 19.4766 126.076 19.5234C126.029 19.5234 125.99 19.5234 125.959 19.5234C125.646 19.5234 125.365 19.4219 125.115 19.2188C124.834 18.9844 124.639 18.6797 124.529 18.3047C124.498 18.2109 124.482 18.1172 124.482 18.0234C124.482 17.8359 124.537 17.6641 124.646 17.5078C124.818 17.2578 125.053 17.1328 125.35 17.1328C125.396 17.1328 125.428 17.1328 125.443 17.1328C125.553 17.1328 125.631 17.1094 125.678 17.0625C125.725 17.0156 125.748 16.9375 125.748 16.8281V9.25781C125.748 9.13281 125.686 9.07031 125.561 9.07031H124.014C123.904 9.07031 123.85 9.13281 123.85 9.25781V21.7266C123.85 22.1016 123.717 22.4141 123.451 22.6641C123.201 22.9297 122.889 23.0625 122.514 23.0625C122.154 23.0625 121.842 22.9297 121.576 22.6641C121.311 22.4141 121.178 22.1016 121.178 21.7266V9.25781C121.178 9.13281 121.123 9.07031 121.014 9.07031H119.584C119.459 9.07031 119.396 9.13281 119.396 9.25781V18.0938C119.396 18.4531 119.271 18.7578 119.021 19.0078C118.771 19.2578 118.467 19.3828 118.107 19.3828C117.748 19.3828 117.443 19.2578 117.193 19.0078C116.943 18.7578 116.818 18.4531 116.818 18.0938V7.89844C116.818 7.50781 116.951 7.17969 117.217 6.91406C117.482 6.64844 117.811 6.51562 118.201 6.51562H121.014C121.123 6.51562 121.178 6.45312 121.178 6.32812V4.54688C121.178 4.42188 121.123 4.35938 121.014 4.35938H117.287C116.928 4.35938 116.623 4.23438 116.373 3.98438C116.123 3.73438 115.998 3.42969 115.998 3.07031C115.998 2.71094 116.123 2.40625 116.373 2.15625C116.623 1.90625 116.928 1.78125 117.287 1.78125H127.693C128.053 1.78125 128.357 1.90625 128.607 2.15625Z" fill="#007FAB"/>
<rect x="0.166748" y="37" width="135" height="42" rx="21" fill="#007FAB"/>
<g clip-path="url(#clip0_0_1)">
<path d="M36.4167 57.0833C38.4417 57.0833 40.0833 55.4417 40.0833 53.4167C40.0833 51.3916 38.4417 49.75 36.4167 49.75C34.3916 49.75 32.75 51.3916 32.75 53.4167C32.75 55.4417 34.3916 57.0833 36.4167 57.0833Z" stroke="white" stroke-width="2.5" stroke-linecap="round" stroke-linejoin="round"/>
<path d="M30.9167 66.25V64.4167C30.9167 63.4442 31.3031 62.5116 31.9907 61.8239C32.6783 61.1363 33.611 60.75 34.5834 60.75H38.2501C39.2225 60.75 40.1552 61.1363 40.8428 61.8239C41.5304 62.5116 41.9167 63.4442 41.9167 64.4167V66.25" stroke="white" stroke-width="2.5" stroke-linecap="round" stroke-linejoin="round"/>
<path d="M43.7073 56.6251C44.1362 56.3864 44.5156 56.0624 44.8204 55.6696C45.3196 55.0265 45.5906 54.2355 45.5906 53.4213C45.5906 52.6072 45.3196 51.8162 44.8204 51.1731C44.4203 50.6576 43.8919 50.2606 43.2917 50.0193" stroke="white" stroke-width="2.5" stroke-linecap="round" stroke-linejoin="round"/>
<path d="M47.4167 66.25V64.4167C47.4121 63.6074 47.1398 62.8224 46.6424 62.184C46.145 61.5457 45.4503 61.0898 44.6667 60.8875" stroke="white" stroke-width="2.5" stroke-linecap="round" stroke-linejoin="round"/>
</g>
<path d="M68.8933 57.9062C69.9871 57.9062 70.9324 57.3203 71.7292 56.1484C71.7917 56.0547 71.8152 55.9531 71.7996 55.8438C71.6433 54.3594 71.2917 53.2812 70.7449 52.6094C70.2136 51.9219 69.5574 51.5781 68.7761 51.5781C68.073 51.5781 67.4949 51.8594 67.0417 52.4219C66.5886 52.9844 66.3621 53.7891 66.3621 54.8359C66.3621 55.8516 66.5808 56.6172 67.0183 57.1328C67.4714 57.6484 68.0964 57.9062 68.8933 57.9062ZM64.4636 66.2031C64.1355 65.9688 63.9714 65.6328 63.9714 65.1953C63.9714 64.8516 64.0886 64.5469 64.323 64.2812L64.3464 64.2578C64.5808 63.9766 64.9011 63.8203 65.3074 63.7891C65.3542 63.7891 65.4011 63.7891 65.448 63.7891C65.7761 63.7891 66.0808 63.8672 66.3621 64.0234C66.9402 64.3047 67.5105 64.4453 68.073 64.4453C69.1511 64.4453 70.0261 63.9922 70.698 63.0859C71.3855 62.1641 71.7683 60.6875 71.8464 58.6562C71.8464 58.625 71.8308 58.6094 71.7996 58.6094C71.7839 58.5938 71.7683 58.5938 71.7527 58.6094C71.2996 59.1719 70.7449 59.6172 70.0886 59.9453C69.4324 60.2578 68.8074 60.4141 68.2136 60.4141C66.6824 60.4141 65.448 59.9375 64.5105 58.9844C63.5886 58.0312 63.1277 56.6484 63.1277 54.8359C63.1277 53.0547 63.6667 51.625 64.7449 50.5469C65.823 49.4531 67.1511 48.9062 68.7292 48.9062C69.5886 48.9062 70.3933 49.0781 71.1433 49.4219C71.8933 49.7656 72.5652 50.2891 73.1589 50.9922C73.7683 51.6797 74.2449 52.6016 74.5886 53.7578C74.9324 54.8984 75.1042 56.2188 75.1042 57.7188C75.1042 59.3438 74.9167 60.7891 74.5417 62.0547C74.1667 63.3047 73.6511 64.3047 72.9949 65.0547C72.3542 65.8047 71.6355 66.375 70.8386 66.7656C70.0417 67.1406 69.1902 67.3281 68.2839 67.3281C66.8621 67.3281 65.5886 66.9531 64.4636 66.2031ZM79.5621 67C79.2808 67 79.0386 66.9062 78.8355 66.7188C78.6324 66.5156 78.5308 66.2656 78.5308 65.9688C78.5308 65.2969 78.7808 64.7344 79.2808 64.2812C81.5933 62.1719 83.3277 60.3359 84.4839 58.7734C85.6402 57.2109 86.2183 55.8125 86.2183 54.5781C86.2183 53.6719 85.9839 52.9688 85.5152 52.4688C85.0464 51.9531 84.3902 51.6953 83.5464 51.6953C82.7808 51.6953 82.023 51.9922 81.273 52.5859C80.9605 52.8203 80.6246 52.9375 80.2652 52.9375C79.9058 52.9375 79.5933 52.8125 79.3277 52.5625C79.0464 52.2812 78.9058 51.9531 78.9058 51.5781C78.9058 51.2031 79.0542 50.8906 79.3511 50.6406C80.6949 49.4844 82.2496 48.9062 84.0152 48.9062C85.6871 48.9062 87.0308 49.4062 88.0464 50.4062C89.0777 51.4062 89.5933 52.7266 89.5933 54.3672C89.5933 57.0547 87.6714 60.2969 83.8277 64.0938C83.7964 64.1094 83.7886 64.1328 83.8042 64.1641C83.8199 64.1953 83.8433 64.2031 83.8746 64.1875C84.9839 64.0781 85.8824 64.0234 86.5699 64.0234H89.0542C89.4292 64.0234 89.7496 64.1641 90.0152 64.4453C90.2964 64.7109 90.4371 65.0312 90.4371 65.4062V65.6172C90.4371 65.9922 90.2964 66.3203 90.0152 66.6016C89.7496 66.8672 89.4292 67 89.0542 67H79.5621ZM99.9105 67.3281C98.0511 67.3281 96.5824 66.5312 95.5042 64.9375C94.4261 63.3438 93.8871 61.0469 93.8871 58.0469C93.8871 55.0469 94.4261 52.7734 95.5042 51.2266C96.5824 49.6797 98.0511 48.9062 99.9105 48.9062C101.77 48.9062 103.231 49.6875 104.293 51.25C105.371 52.7969 105.91 55.0625 105.91 58.0469C105.91 61.0469 105.371 63.3438 104.293 64.9375C103.215 66.5312 101.754 67.3281 99.9105 67.3281ZM99.9105 64.5859C101.692 64.5859 102.582 62.4062 102.582 58.0469C102.582 53.7812 101.692 51.6484 99.9105 51.6484C99.5042 51.6484 99.1449 51.75 98.8324 51.9531C98.5199 52.1562 98.2386 52.5 97.9886 52.9844C97.7386 53.4531 97.5433 54.1172 97.4027 54.9766C97.2777 55.8203 97.2152 56.8438 97.2152 58.0469C97.2152 62.4062 98.1136 64.5859 99.9105 64.5859Z" fill="white"/>
<defs>
<clipPath id="clip0_0_1">
<rect width="22" height="22" fill="white" transform="translate(28.1667 47)"/>
</clipPath>
</defs>
</svg>
