<svg width="136" height="79" viewBox="0 0 136 79" fill="none" xmlns="http://www.w3.org/2000/svg">
<path d="M25.5 21.3281C20.8906 21.3281 18.5859 18.5547 18.5859 13.0078V4.61719C18.5859 4.24219 18.7188 3.92188 18.9844 3.65625C19.2656 3.375 19.5938 3.23438 19.9688 3.23438H20.7656C21.1406 3.23438 21.4609 3.375 21.7266 3.65625C22.0078 3.92188 22.1484 4.24219 22.1484 4.61719V13.3125C22.1484 15.0938 22.4297 16.3672 22.9922 17.1328C23.5703 17.8828 24.4062 18.2578 25.5 18.2578C26.625 18.2578 27.4766 17.875 28.0547 17.1094C28.6484 16.3438 28.9453 15.0781 28.9453 13.3125V4.61719C28.9453 4.24219 29.0781 3.92188 29.3438 3.65625C29.625 3.375 29.9531 3.23438 30.3281 3.23438H30.9844C31.3594 3.23438 31.6797 3.375 31.9453 3.65625C32.2266 3.92188 32.3672 4.24219 32.3672 4.61719V13.0078C32.3672 15.8828 31.7812 17.9922 30.6094 19.3359C29.4375 20.6641 27.7344 21.3281 25.5 21.3281ZM39.1922 21C38.8172 21 38.4891 20.8672 38.2078 20.6016C37.9422 20.3203 37.8094 19.9922 37.8094 19.6172V4.61719C37.8094 4.24219 37.9422 3.92188 38.2078 3.65625C38.4891 3.375 38.8172 3.23438 39.1922 3.23438H39.9891C40.3641 3.23438 40.6844 3.375 40.95 3.65625C41.2313 3.92188 41.3719 4.24219 41.3719 4.61719V19.6172C41.3719 19.9922 41.2313 20.3203 40.95 20.6016C40.6844 20.8672 40.3641 21 39.9891 21H39.1922ZM52.9078 1.40625C53.2047 1.40625 53.4547 1.51562 53.6578 1.73438C53.8766 1.9375 53.9859 2.19531 53.9859 2.50781C53.9859 2.80469 53.8766 3.0625 53.6578 3.28125C53.4547 3.48438 53.2047 3.58594 52.9078 3.58594H47.8219C47.525 3.58594 47.2672 3.48438 47.0484 3.28125C46.8453 3.0625 46.7437 2.80469 46.7437 2.50781C46.7437 2.19531 46.8453 1.9375 47.0484 1.73438C47.2672 1.51562 47.525 1.40625 47.8219 1.40625H52.9078ZM53.775 4.64062C54.0875 4.64062 54.3531 4.75 54.5719 4.96875C54.7906 5.1875 54.9 5.45312 54.9 5.76562C54.9 6.07812 54.7906 6.34375 54.5719 6.5625C54.3531 6.78125 54.0875 6.89062 53.775 6.89062H46.65C46.3375 6.89062 46.0719 6.78125 45.8531 6.5625C45.6344 6.34375 45.525 6.07812 45.525 5.76562C45.525 5.45312 45.6344 5.1875 45.8531 4.96875C46.0719 4.75 46.3375 4.64062 46.65 4.64062H53.775ZM52.9781 11.25C53.275 11.25 53.525 11.3594 53.7281 11.5781C53.9312 11.7812 54.0328 12.0312 54.0328 12.3281C54.0328 12.625 53.9312 12.875 53.7281 13.0781C53.525 13.2812 53.275 13.3828 52.9781 13.3828H47.7047C47.4234 13.3828 47.1734 13.2812 46.9547 13.0781C46.7516 12.875 46.65 12.625 46.65 12.3281C46.65 12.0312 46.7516 11.7812 46.9547 11.5781C47.1734 11.3594 47.4234 11.25 47.7047 11.25H52.9781ZM63.1266 13.6875C63.1422 13.6562 63.1422 13.625 63.1266 13.5938C63.1109 13.5625 63.0797 13.5469 63.0328 13.5469H58.7906C58.7594 13.5469 58.7281 13.5625 58.6969 13.5938C58.6812 13.625 58.6812 13.6562 58.6969 13.6875C59.2281 14.75 59.9391 15.7344 60.8297 16.6406C60.9078 16.7344 60.9937 16.7344 61.0875 16.6406C61.9 15.7969 62.5797 14.8125 63.1266 13.6875ZM51.3609 19.5938C51.4859 19.5938 51.5484 19.5312 51.5484 19.4062V16.9922C51.5484 16.8828 51.4859 16.8281 51.3609 16.8281H49.1812C49.0562 16.8281 48.9937 16.8828 48.9937 16.9922V19.4062C48.9937 19.5312 49.0562 19.5938 49.1812 19.5938H51.3609ZM64.5797 10.9453C64.7047 10.9297 64.8219 10.9219 64.9312 10.9219C65.0875 10.9219 65.2516 10.9453 65.4234 10.9922L65.9391 11.2031C66.2047 11.2969 66.4 11.4688 66.525 11.7188C66.6031 11.875 66.6422 12.0312 66.6422 12.1875C66.6422 12.2969 66.6266 12.3984 66.5953 12.4922C65.8609 14.7891 64.7594 16.7578 63.2906 18.3984C63.2125 18.4922 63.2281 18.5703 63.3375 18.6328C64.3687 19.2734 65.525 19.7969 66.8062 20.2031C67.1031 20.3125 67.2906 20.5156 67.3687 20.8125C67.4 20.9062 67.4156 21 67.4156 21.0938C67.4156 21.2812 67.3531 21.4609 67.2281 21.6328C67.1656 21.7266 67.1031 21.8125 67.0406 21.8906C66.7906 22.2344 66.4781 22.4766 66.1031 22.6172C65.9 22.6953 65.7047 22.7344 65.5172 22.7344C65.3453 22.7344 65.1656 22.6953 64.9781 22.6172C63.5875 22.0859 62.3062 21.3984 61.1344 20.5547C61.0406 20.4766 60.9469 20.4766 60.8531 20.5547C59.65 21.3672 58.3062 22.0547 56.8219 22.6172C56.65 22.6797 56.4781 22.7109 56.3062 22.7109C56.1187 22.7109 55.9234 22.6719 55.7203 22.5938C55.3609 22.4375 55.0797 22.1875 54.8766 21.8438C54.6109 21.3906 54.3531 21.0078 54.1031 20.6953C54.0875 20.6797 54.0641 20.6797 54.0328 20.6953C54.0172 20.6953 54.0094 20.7031 54.0094 20.7188C54.0094 21.0312 53.9 21.2891 53.6812 21.4922C53.4781 21.7109 53.2281 21.8203 52.9312 21.8203H49.1109C49.0328 21.8203 48.9937 21.8516 48.9937 21.9141C48.9937 22.1484 48.9156 22.3438 48.7594 22.5C48.6031 22.6719 48.4078 22.7578 48.1734 22.7578H47.7984C47.4547 22.7578 47.1656 22.6328 46.9312 22.3828C46.6969 22.1484 46.5797 21.8672 46.5797 21.5391V15.9609C46.5797 15.5703 46.7125 15.2422 46.9781 14.9766C47.2437 14.7109 47.5719 14.5781 47.9625 14.5781H52.6266C53.0172 14.5781 53.3453 14.7109 53.6109 14.9766C53.8766 15.2422 54.0094 15.5703 54.0094 15.9609V20.3672C54.0094 20.4141 54.025 20.4531 54.0562 20.4844C54.1031 20.5 54.1422 20.5078 54.1734 20.5078C55.9078 20.0547 57.4234 19.4141 58.7203 18.5859C58.8141 18.5234 58.8219 18.4453 58.7437 18.3516C57.9937 17.5234 57.3297 16.5938 56.7516 15.5625C56.6422 15.375 56.5875 15.1875 56.5875 15C56.5875 14.8594 56.6187 14.7188 56.6812 14.5781C56.8219 14.2344 57.0719 14.0078 57.4312 13.8984L58.3922 13.5938C58.4078 13.5938 58.4078 13.5859 58.3922 13.5703C58.3922 13.5547 58.3844 13.5469 58.3687 13.5469H56.4937C56.15 13.5469 55.8453 13.4219 55.5797 13.1719C55.3297 12.9062 55.2047 12.6016 55.2047 12.2578V11.6953C55.2047 11.4922 55.275 11.3203 55.4156 11.1797C55.5719 11.0391 55.7437 10.9688 55.9312 10.9688C55.9469 10.9688 55.9547 10.9609 55.9547 10.9453C55.9703 10.9297 55.9781 10.9141 55.9781 10.8984C55.4625 10.3359 54.8453 9.80469 54.1266 9.30469C54.0641 9.25781 54.0328 9.27344 54.0328 9.35156C54.0328 9.57031 53.9547 9.75781 53.7984 9.91406C53.6422 10.0703 53.4547 10.1484 53.2359 10.1484H47.7516C47.4391 10.1484 47.1734 10.0469 46.9547 9.84375C46.7516 9.625 46.65 9.36719 46.65 9.07031C46.65 8.75781 46.7516 8.5 46.9547 8.29688C47.1734 8.07812 47.4391 7.96875 47.7516 7.96875H53.025C53.3062 7.96875 53.5406 8.07031 53.7281 8.27344C53.9312 8.47656 54.0328 8.71875 54.0328 9C54.0328 9.01562 54.0484 9.03125 54.0797 9.04688C54.1109 9.0625 54.1344 9.0625 54.15 9.04688C55.0406 8.40625 55.6344 7.6875 55.9312 6.89062C56.2281 6.07812 56.3766 5.17969 56.3766 4.19531V2.71875C56.3766 2.34375 56.5094 2.02344 56.775 1.75781C57.0406 1.47656 57.3687 1.33594 57.7594 1.33594H63.0328C63.4078 1.33594 63.7281 1.47656 63.9937 1.75781C64.275 2.02344 64.4156 2.34375 64.4156 2.71875V6.72656C64.4156 7.05469 64.4312 7.25781 64.4625 7.33594C64.4937 7.41406 64.5797 7.45312 64.7203 7.45312H65.3297C65.4547 7.45312 65.5406 7.38281 65.5875 7.24219C65.65 7.10156 65.6969 6.79688 65.7281 6.32812C65.7437 6.0625 65.8687 5.85156 66.1031 5.69531C66.2437 5.61719 66.3844 5.57812 66.525 5.57812C66.65 5.57812 66.7672 5.60156 66.8766 5.64844C67.2359 5.80469 67.5172 6.03125 67.7203 6.32812C67.8766 6.57812 67.9547 6.83594 67.9547 7.10156C67.9547 7.17969 67.9469 7.25781 67.9312 7.33594C67.775 8.28906 67.5172 8.95312 67.1578 9.32812C66.8141 9.70312 66.2984 9.89062 65.6109 9.89062H64.2047C63.2516 9.89062 62.6031 9.67188 62.2594 9.23438C61.9156 8.78125 61.7437 7.96094 61.7437 6.77344V4.03125C61.7437 3.92188 61.6891 3.86719 61.5797 3.86719H59.2359C59.1109 3.86719 59.0484 3.92188 59.0484 4.03125V4.26562C59.0484 7.3125 58.1031 9.51562 56.2125 10.875C56.1969 10.8906 56.1891 10.9141 56.1891 10.9453C56.2047 10.9609 56.2281 10.9688 56.2594 10.9688H64.4625C64.5094 10.9688 64.5484 10.9609 64.5797 10.9453ZM78.5531 1.40625C78.85 1.40625 79.1 1.51562 79.3031 1.73438C79.5219 1.9375 79.6312 2.19531 79.6312 2.50781C79.6312 2.80469 79.5219 3.0625 79.3031 3.28125C79.1 3.48438 78.85 3.58594 78.5531 3.58594H73.0922C72.7953 3.58594 72.5375 3.48438 72.3187 3.28125C72.1156 3.0625 72.0141 2.80469 72.0141 2.50781C72.0141 2.19531 72.1156 1.9375 72.3187 1.73438C72.5375 1.51562 72.7953 1.40625 73.0922 1.40625H78.5531ZM79.3969 4.64062C79.7094 4.64062 79.975 4.75 80.1937 4.96875C80.4281 5.1875 80.5453 5.45312 80.5453 5.76562C80.5453 6.07812 80.4281 6.34375 80.1937 6.5625C79.975 6.78125 79.7094 6.89062 79.3969 6.89062H71.85C71.5375 6.89062 71.2719 6.78125 71.0531 6.5625C70.8344 6.34375 70.725 6.07812 70.725 5.76562C70.725 5.45312 70.8344 5.1875 71.0531 4.96875C71.2719 4.75 71.5375 4.64062 71.85 4.64062H79.3969ZM77.0062 16.9922C77.0062 16.8828 76.9516 16.8281 76.8422 16.8281H74.4516C74.3266 16.8281 74.2641 16.8828 74.2641 16.9922V19.4062C74.2641 19.5312 74.3266 19.5938 74.4516 19.5938H76.8422C76.9516 19.5938 77.0062 19.5312 77.0062 19.4062V16.9922ZM78.1312 14.5781C78.5062 14.5781 78.8266 14.7109 79.0922 14.9766C79.3734 15.2422 79.5141 15.5703 79.5141 15.9609V20.4375C79.5141 20.8125 79.3734 21.1328 79.0922 21.3984C78.8266 21.6797 78.5062 21.8203 78.1312 21.8203H74.3812C74.3031 21.8203 74.2641 21.8516 74.2641 21.9141C74.2641 22.1484 74.1859 22.3438 74.0297 22.5C73.8734 22.6719 73.6781 22.7578 73.4437 22.7578H73.0453C72.7016 22.7578 72.4047 22.6328 72.1547 22.3828C71.9203 22.1484 71.8031 21.8594 71.8031 21.5156V15.9609C71.8031 15.5703 71.9359 15.2422 72.2016 14.9766C72.4672 14.7109 72.7953 14.5781 73.1859 14.5781H78.1312ZM72.9516 13.3828C72.6547 13.3828 72.3969 13.2812 72.1781 13.0781C71.975 12.875 71.8734 12.625 71.8734 12.3281C71.8734 12.0312 71.975 11.7812 72.1781 11.5781C72.3969 11.3594 72.6547 11.25 72.9516 11.25H78.5062C78.8031 11.25 79.0531 11.3594 79.2562 11.5781C79.475 11.7812 79.5844 12.0312 79.5844 12.3281C79.5844 12.625 79.475 12.875 79.2562 13.0781C79.0531 13.2812 78.8031 13.3828 78.5062 13.3828H72.9516ZM72.975 10.1484C72.6625 10.1484 72.3969 10.0469 72.1781 9.84375C71.975 9.625 71.8734 9.36719 71.8734 9.07031C71.8734 8.75781 71.975 8.5 72.1781 8.29688C72.3969 8.07812 72.6625 7.96875 72.975 7.96875H78.4828C78.7797 7.96875 79.0375 8.07812 79.2562 8.29688C79.475 8.5 79.5844 8.75781 79.5844 9.07031C79.5844 9.36719 79.475 9.625 79.2562 9.84375C79.0375 10.0469 78.7797 10.1484 78.4828 10.1484H72.975ZM91.9594 8.69531C92.35 8.69531 92.6781 8.82812 92.9437 9.09375C93.2094 9.35938 93.3422 9.6875 93.3422 10.0781V10.1484C93.3422 10.5234 93.2094 10.8516 92.9437 11.1328C92.6781 11.3984 92.35 11.5312 91.9594 11.5312H88.5141C88.3891 11.5312 88.3266 11.5859 88.3266 11.6953V21.7031C88.3266 22.0938 88.1937 22.4219 87.9281 22.6875C87.6625 22.9531 87.3344 23.0859 86.9437 23.0859H86.85C86.4594 23.0859 86.1312 22.9531 85.8656 22.6875C85.6 22.4219 85.4672 22.0938 85.4672 21.7031V11.6953C85.4672 11.5859 85.4047 11.5312 85.2797 11.5312H81.8344C81.4437 11.5312 81.1156 11.3984 80.85 11.1328C80.5844 10.8516 80.4516 10.5234 80.4516 10.1484V10.0781C80.4516 9.6875 80.5844 9.35938 80.85 9.09375C81.1156 8.82812 81.4437 8.69531 81.8344 8.69531H85.2797C85.4047 8.69531 85.4672 8.63281 85.4672 8.50781V2.15625C85.4672 1.76563 85.6 1.4375 85.8656 1.17188C86.1312 0.90625 86.4594 0.773438 86.85 0.773438H86.9437C87.3344 0.773438 87.6625 0.90625 87.9281 1.17188C88.1937 1.4375 88.3266 1.76563 88.3266 2.15625V8.50781C88.3266 8.63281 88.3891 8.69531 88.5141 8.69531H91.9594ZM102.23 15.5859C102.23 15.4609 102.175 15.3984 102.066 15.3984H99.6281C99.5031 15.3984 99.4406 15.4609 99.4406 15.5859V18.1641C99.4406 18.2734 99.5031 18.3281 99.6281 18.3281H102.066C102.175 18.3281 102.23 18.2734 102.23 18.1641V15.5859ZM101.808 9.04688C101.933 9.04688 101.995 8.99219 101.995 8.88281V6.77344C101.995 6.66406 101.933 6.60938 101.808 6.60938H99.6281C99.5031 6.60938 99.4406 6.66406 99.4406 6.77344V8.88281C99.4406 8.99219 99.5031 9.04688 99.6281 9.04688H101.808ZM99.6281 11.4375C99.5031 11.4375 99.4406 11.5 99.4406 11.625V12.8438C99.4406 12.9531 99.5031 13.0078 99.6281 13.0078H103.378C103.753 13.0078 104.073 13.1484 104.339 13.4297C104.62 13.6953 104.761 14.0156 104.761 14.3906V19.3594C104.761 19.7344 104.62 20.0625 104.339 20.3438C104.073 20.6094 103.753 20.7422 103.378 20.7422H99.6047C99.4953 20.7422 99.4406 20.7969 99.4406 20.9062V20.9531C99.4406 21.3125 99.3156 21.6094 99.0656 21.8438C98.8313 22.0938 98.5344 22.2188 98.175 22.2188C97.8313 22.2188 97.5344 22.0938 97.2844 21.8438C97.05 21.6094 96.9328 21.3125 96.9328 20.9531V5.57812C96.9328 5.20312 97.0656 4.88281 97.3313 4.61719C97.5969 4.33594 97.925 4.19531 98.3156 4.19531H98.7375C98.8625 4.19531 98.9406 4.14062 98.9719 4.03125C99.1438 3.29688 99.2844 2.63281 99.3938 2.03906C99.4719 1.66406 99.6594 1.35156 99.9563 1.10156C100.222 0.882812 100.519 0.773438 100.847 0.773438C100.878 0.773438 100.917 0.78125 100.964 0.796875L101.386 0.820312C101.73 0.851563 101.995 1.01563 102.183 1.3125C102.308 1.48438 102.37 1.66406 102.37 1.85156C102.37 1.97656 102.347 2.10156 102.3 2.22656C102.05 2.88281 101.8 3.48438 101.55 4.03125C101.534 4.07812 101.534 4.11719 101.55 4.14844C101.581 4.17969 101.62 4.19531 101.667 4.19531H103.12C103.511 4.19531 103.839 4.33594 104.105 4.61719C104.37 4.88281 104.503 5.20312 104.503 5.57812V10.0547C104.503 10.4453 104.37 10.7734 104.105 11.0391C103.839 11.3047 103.511 11.4375 103.12 11.4375H99.6281ZM117.769 2.15625C118.019 2.40625 118.144 2.71094 118.144 3.07031C118.144 3.42969 118.019 3.73438 117.769 3.98438C117.519 4.23438 117.214 4.35938 116.855 4.35938H113.175C113.066 4.35938 113.011 4.42188 113.011 4.54688V6.32812C113.011 6.45312 113.066 6.51562 113.175 6.51562H116.152C116.542 6.51562 116.87 6.64844 117.136 6.91406C117.402 7.17969 117.534 7.50781 117.534 7.89844V16.875C117.534 17.4688 117.472 17.9375 117.347 18.2812C117.238 18.625 117.019 18.8984 116.691 19.1016C116.331 19.3359 115.847 19.4766 115.238 19.5234C115.191 19.5234 115.152 19.5234 115.12 19.5234C114.808 19.5234 114.527 19.4219 114.277 19.2188C113.995 18.9844 113.8 18.6797 113.691 18.3047C113.659 18.2109 113.644 18.1172 113.644 18.0234C113.644 17.8359 113.698 17.6641 113.808 17.5078C113.98 17.2578 114.214 17.1328 114.511 17.1328C114.558 17.1328 114.589 17.1328 114.605 17.1328C114.714 17.1328 114.792 17.1094 114.839 17.0625C114.886 17.0156 114.909 16.9375 114.909 16.8281V9.25781C114.909 9.13281 114.847 9.07031 114.722 9.07031H113.175C113.066 9.07031 113.011 9.13281 113.011 9.25781V21.7266C113.011 22.1016 112.878 22.4141 112.613 22.6641C112.363 22.9297 112.05 23.0625 111.675 23.0625C111.316 23.0625 111.003 22.9297 110.738 22.6641C110.472 22.4141 110.339 22.1016 110.339 21.7266V9.25781C110.339 9.13281 110.284 9.07031 110.175 9.07031H108.745C108.62 9.07031 108.558 9.13281 108.558 9.25781V18.0938C108.558 18.4531 108.433 18.7578 108.183 19.0078C107.933 19.2578 107.628 19.3828 107.269 19.3828C106.909 19.3828 106.605 19.2578 106.355 19.0078C106.105 18.7578 105.98 18.4531 105.98 18.0938V7.89844C105.98 7.50781 106.113 7.17969 106.378 6.91406C106.644 6.64844 106.972 6.51562 107.363 6.51562H110.175C110.284 6.51562 110.339 6.45312 110.339 6.32812V4.54688C110.339 4.42188 110.284 4.35938 110.175 4.35938H106.448C106.089 4.35938 105.784 4.23438 105.534 3.98438C105.284 3.73438 105.159 3.42969 105.159 3.07031C105.159 2.71094 105.284 2.40625 105.534 2.15625C105.784 1.90625 106.089 1.78125 106.448 1.78125H116.855C117.214 1.78125 117.519 1.90625 117.769 2.15625Z" fill="#007FAB"/>
<rect x="0.5" y="37" width="135" height="42" rx="21" fill="#007FAB"/>
<g clip-path="url(#clip0_0_1)">
<path d="M36.7499 57.0833C38.775 57.0833 40.4166 55.4417 40.4166 53.4167C40.4166 51.3916 38.775 49.75 36.7499 49.75C34.7249 49.75 33.0833 51.3916 33.0833 53.4167C33.0833 55.4417 34.7249 57.0833 36.7499 57.0833Z" stroke="white" stroke-width="2.5" stroke-linecap="round" stroke-linejoin="round"/>
<path d="M31.25 66.25V64.4167C31.25 63.4442 31.6363 62.5116 32.3239 61.8239C33.0116 61.1363 33.9442 60.75 34.9167 60.75H38.5833C39.5558 60.75 40.4884 61.1363 41.1761 61.8239C41.8637 62.5116 42.25 63.4442 42.25 64.4167V66.25" stroke="white" stroke-width="2.5" stroke-linecap="round" stroke-linejoin="round"/>
<path d="M44.0406 56.6251C44.4694 56.3864 44.8488 56.0624 45.1537 55.6696C45.6529 55.0265 45.9239 54.2355 45.9239 53.4213C45.9239 52.6072 45.6529 51.8162 45.1537 51.1731C44.7536 50.6576 44.2251 50.2606 43.625 50.0193" stroke="white" stroke-width="2.5" stroke-linecap="round" stroke-linejoin="round"/>
<path d="M47.75 66.25V64.4167C47.7453 63.6074 47.4731 62.8224 46.9757 62.184C46.4782 61.5457 45.7836 61.0898 45 60.8875" stroke="white" stroke-width="2.5" stroke-linecap="round" stroke-linejoin="round"/>
</g>
<path d="M65.8516 67C65.4766 67 65.1484 66.8672 64.8672 66.6016C64.6016 66.3203 64.4688 65.9922 64.4688 65.6172V65.5234C64.4688 65.1484 64.6016 64.8281 64.8672 64.5625C65.1484 64.2812 65.4766 64.1406 65.8516 64.1406H68.1016C68.2266 64.1406 68.2891 64.0859 68.2891 63.9766V53.0781C68.2891 52.9688 68.2266 52.9141 68.1016 52.9141H66.1562C65.8594 52.9141 65.6016 52.8125 65.3828 52.6094C65.1797 52.3906 65.0781 52.125 65.0781 51.8125C65.0781 51.5 65.1719 51.2266 65.3594 50.9922C65.5625 50.7422 65.8203 50.5781 66.1328 50.5C66.8359 50.3125 67.4688 50.0938 68.0312 49.8438C68.9531 49.4375 69.7812 49.2344 70.5156 49.2344C70.875 49.2344 71.1797 49.3672 71.4297 49.6328C71.6797 49.8828 71.8047 50.1875 71.8047 50.5469V63.9766C71.8047 64.0859 71.8672 64.1406 71.9922 64.1406H73.7734C74.1484 64.1406 74.4688 64.2812 74.7344 64.5625C75.0156 64.8281 75.1562 65.1484 75.1562 65.5234V65.6172C75.1562 65.9922 75.0156 66.3203 74.7344 66.6016C74.4688 66.8672 74.1484 67 73.7734 67H65.8516ZM81.1844 67C80.8094 67 80.4812 66.8672 80.2 66.6016C79.9344 66.3203 79.8016 65.9922 79.8016 65.6172V65.5234C79.8016 65.1484 79.9344 64.8281 80.2 64.5625C80.4812 64.2812 80.8094 64.1406 81.1844 64.1406H83.4344C83.5594 64.1406 83.6219 64.0859 83.6219 63.9766V53.0781C83.6219 52.9688 83.5594 52.9141 83.4344 52.9141H81.4891C81.1922 52.9141 80.9344 52.8125 80.7156 52.6094C80.5125 52.3906 80.4109 52.125 80.4109 51.8125C80.4109 51.5 80.5047 51.2266 80.6922 50.9922C80.8953 50.7422 81.1531 50.5781 81.4656 50.5C82.1687 50.3125 82.8016 50.0938 83.3641 49.8438C84.2859 49.4375 85.1141 49.2344 85.8484 49.2344C86.2078 49.2344 86.5125 49.3672 86.7625 49.6328C87.0125 49.8828 87.1375 50.1875 87.1375 50.5469V63.9766C87.1375 64.0859 87.2 64.1406 87.325 64.1406H89.1062C89.4812 64.1406 89.8016 64.2812 90.0672 64.5625C90.3484 64.8281 90.4891 65.1484 90.4891 65.5234V65.6172C90.4891 65.9922 90.3484 66.3203 90.0672 66.6016C89.8016 66.8672 89.4812 67 89.1062 67H81.1844ZM100.244 67.3281C98.3844 67.3281 96.9156 66.5312 95.8375 64.9375C94.7594 63.3438 94.2203 61.0469 94.2203 58.0469C94.2203 55.0469 94.7594 52.7734 95.8375 51.2266C96.9156 49.6797 98.3844 48.9062 100.244 48.9062C102.103 48.9062 103.564 49.6875 104.627 51.25C105.705 52.7969 106.244 55.0625 106.244 58.0469C106.244 61.0469 105.705 63.3438 104.627 64.9375C103.548 66.5312 102.087 67.3281 100.244 67.3281ZM100.244 64.5859C102.025 64.5859 102.916 62.4062 102.916 58.0469C102.916 53.7812 102.025 51.6484 100.244 51.6484C99.8375 51.6484 99.4781 51.75 99.1656 51.9531C98.8531 52.1562 98.5719 52.5 98.3219 52.9844C98.0719 53.4531 97.8766 54.1172 97.7359 54.9766C97.6109 55.8203 97.5484 56.8438 97.5484 58.0469C97.5484 62.4062 98.4469 64.5859 100.244 64.5859Z" fill="white"/>
<defs>
<clipPath id="clip0_0_1">
<rect width="22" height="22" fill="white" transform="translate(28.5 47)"/>
</clipPath>
</defs>
</svg>
