<svg width="121" height="79" viewBox="0 0 121 79" fill="none" xmlns="http://www.w3.org/2000/svg">
<path d="M36.0991 12C35.9741 12 35.9116 12.0625 35.9116 12.1875V12.5859C35.9116 12.7109 35.9741 12.7734 36.0991 12.7734H37.7866C37.8022 12.7734 37.8101 12.7656 37.8101 12.75C37.7476 12.7031 37.7163 12.6406 37.7163 12.5625C37.7163 12.4844 37.7476 12.4219 37.8101 12.375L38.3022 12.0703C38.3179 12.0547 38.3179 12.0391 38.3022 12.0234C38.3022 12.0078 38.2944 12 38.2788 12H36.0991ZM30.9897 10.6172C30.9897 10.7422 31.0522 10.8047 31.1772 10.8047H33.4038C33.5288 10.8047 33.5913 10.7422 33.5913 10.6172V10.2891C33.5913 10.1641 33.5288 10.1016 33.4038 10.1016H31.1772C31.0522 10.1016 30.9897 10.1641 30.9897 10.2891V10.6172ZM31.1772 8.27344C31.0522 8.27344 30.9897 8.33594 30.9897 8.46094V8.78906C30.9897 8.91406 31.0522 8.97656 31.1772 8.97656H33.4038C33.5288 8.97656 33.5913 8.91406 33.5913 8.78906V8.46094C33.5913 8.33594 33.5288 8.27344 33.4038 8.27344H31.1772ZM38.4663 8.46094C38.4663 8.33594 38.4038 8.27344 38.2788 8.27344H36.0991C35.9741 8.27344 35.9116 8.33594 35.9116 8.46094V8.78906C35.9116 8.91406 35.9741 8.97656 36.0991 8.97656H38.2788C38.4038 8.97656 38.4663 8.91406 38.4663 8.78906V8.46094ZM38.2788 10.8047C38.4038 10.8047 38.4663 10.7422 38.4663 10.6172V10.2891C38.4663 10.1641 38.4038 10.1016 38.2788 10.1016H36.0991C35.9741 10.1016 35.9116 10.1641 35.9116 10.2891V10.6172C35.9116 10.7422 35.9741 10.8047 36.0991 10.8047H38.2788ZM40.9272 14.8125C41.146 14.8125 41.3257 14.8906 41.4663 15.0469C41.6226 15.1875 41.7007 15.3672 41.7007 15.5859C41.7007 15.7891 41.6226 15.9688 41.4663 16.125C41.3257 16.2656 41.146 16.3359 40.9272 16.3359H38.771C38.6616 16.3359 38.6069 16.3984 38.6069 16.5234V17.8828C38.6069 18.3359 38.5444 18.6641 38.4194 18.8672C38.2944 19.0547 38.0679 19.1953 37.7397 19.2891C37.3022 19.4141 36.5757 19.4766 35.5601 19.4766C35.1069 19.4766 34.7788 19.2344 34.5757 18.75C34.4976 18.5938 34.5054 18.4453 34.5991 18.3047C34.6929 18.1641 34.8257 18.0938 34.9976 18.0938C35.1069 18.0938 35.2007 18.0938 35.2788 18.0938C35.5913 18.0938 35.8022 18.0859 35.9116 18.0703C36.1304 18.0703 36.2397 17.9766 36.2397 17.7891V16.5234C36.2397 16.3984 36.1851 16.3359 36.0757 16.3359H32.1851C32.1538 16.3359 32.1304 16.3516 32.1147 16.3828C32.0991 16.4141 32.0991 16.4453 32.1147 16.4766C32.4272 16.7734 32.7241 17.0938 33.0054 17.4375C33.1304 17.5938 33.1929 17.7578 33.1929 17.9297C33.1929 18.0078 33.1772 18.0859 33.146 18.1641C33.0835 18.4297 32.9194 18.625 32.6538 18.75C32.4976 18.8281 32.3335 18.8672 32.1616 18.8672C32.0522 18.8672 31.9429 18.8516 31.8335 18.8203C31.5522 18.7422 31.3179 18.5781 31.1304 18.3281C31.0679 18.25 31.0054 18.1719 30.9429 18.0938C30.7866 17.8906 30.7085 17.6719 30.7085 17.4375C30.7085 17.3594 30.7163 17.2812 30.7319 17.2031C30.7944 16.8594 30.9819 16.6172 31.2944 16.4766L31.4116 16.4297C31.4272 16.4141 31.4351 16.3984 31.4351 16.3828C31.4351 16.3516 31.4194 16.3359 31.3882 16.3359H28.6226C28.4038 16.3359 28.2163 16.2656 28.0601 16.125C27.9194 15.9688 27.8491 15.7891 27.8491 15.5859C27.8491 15.3672 27.9194 15.1875 28.0601 15.0469C28.2163 14.8906 28.4038 14.8125 28.6226 14.8125H36.1694C36.2163 14.8125 36.2397 14.7812 36.2397 14.7188C36.2397 14.5625 36.3022 14.4219 36.4272 14.2969C36.5522 14.1719 36.7007 14.1094 36.8726 14.1094H37.9741C38.146 14.1094 38.2944 14.1719 38.4194 14.2969C38.5444 14.4219 38.6069 14.5625 38.6069 14.7188C38.6069 14.7812 38.6304 14.8125 38.6772 14.8125H39.7085C39.7397 14.8125 39.7632 14.7969 39.7788 14.7656C39.7944 14.7344 39.7944 14.7031 39.7788 14.6719C39.6694 14.5312 39.5054 14.3438 39.2866 14.1094C39.2085 14.0312 39.1147 13.9922 39.0054 13.9922C35.021 14.1328 31.7163 14.2344 29.0913 14.2969C28.8726 14.2969 28.6851 14.2266 28.5288 14.0859C28.3726 13.9453 28.2866 13.7656 28.271 13.5469C28.271 13.3438 28.3413 13.1719 28.4819 13.0312C28.6226 12.875 28.7944 12.7969 28.9976 12.7969H33.4038C33.5288 12.7969 33.5913 12.7344 33.5913 12.6094V12.1875C33.5913 12.0625 33.5288 12 33.4038 12H30.2163C29.8413 12 29.5132 11.8672 29.2319 11.6016C28.9663 11.3203 28.8335 10.9922 28.8335 10.6172V8.48438C28.8335 8.10938 28.9663 7.78906 29.2319 7.52344C29.5132 7.24219 29.8413 7.10156 30.2163 7.10156H33.4038C33.5288 7.10156 33.5913 7.04688 33.5913 6.9375V6.5625C33.5913 6.4375 33.5288 6.375 33.4038 6.375H28.9272C28.7241 6.375 28.5444 6.30469 28.3882 6.16406C28.2319 6.00781 28.1538 5.82812 28.1538 5.625C28.1538 5.40625 28.2319 5.22656 28.3882 5.08594C28.5444 4.92969 28.7241 4.85156 28.9272 4.85156H33.4741C33.5522 4.85156 33.5913 4.82031 33.5913 4.75781C33.5913 4.53906 33.6616 4.35156 33.8022 4.19531C33.9585 4.03906 34.146 3.96094 34.3647 3.96094H35.1147C35.3335 3.96094 35.521 4.03906 35.6772 4.19531C35.8335 4.35156 35.9116 4.53906 35.9116 4.75781C35.9116 4.82031 35.9429 4.85156 36.0054 4.85156H40.6226C40.8257 4.85156 41.0054 4.92969 41.1616 5.08594C41.3179 5.22656 41.396 5.40625 41.396 5.625C41.396 5.82812 41.3179 6.00781 41.1616 6.16406C41.0054 6.30469 40.8257 6.375 40.6226 6.375H36.0991C35.9741 6.375 35.9116 6.4375 35.9116 6.5625V6.9375C35.9116 7.04688 35.9741 7.10156 36.0991 7.10156H39.3569C39.7319 7.10156 40.0522 7.24219 40.3179 7.52344C40.5991 7.78906 40.7397 8.10938 40.7397 8.48438V10.9453C40.7397 11.2266 40.6304 11.4766 40.4116 11.6953C40.2085 11.8984 39.9585 12 39.6616 12C39.646 12 39.6382 12.0156 39.6382 12.0469C39.6382 12.0625 39.6382 12.0781 39.6382 12.0938C39.9663 12.3438 40.2788 12.6016 40.5757 12.8672C40.8101 13.1016 40.9272 13.375 40.9272 13.6875C40.9272 13.7344 40.9272 13.7734 40.9272 13.8047C40.896 14.1797 40.7241 14.4766 40.4116 14.6953L40.3882 14.7188C40.3726 14.7344 40.3647 14.7578 40.3647 14.7891C40.3804 14.8047 40.396 14.8125 40.4116 14.8125H40.9272ZM27.3804 19.5938C27.3804 19.7188 27.4351 19.7812 27.5444 19.7812H42.0522C42.1616 19.7812 42.2163 19.7188 42.2163 19.5938V3.79688C42.2163 3.6875 42.1616 3.63281 42.0522 3.63281H27.5444C27.4351 3.63281 27.3804 3.6875 27.3804 3.79688V19.5938ZM24.8022 2.83594C24.8022 2.46094 24.9351 2.14063 25.2007 1.875C25.4819 1.59375 25.8101 1.45312 26.1851 1.45312H43.5522C43.9429 1.45312 44.271 1.59375 44.5366 1.875C44.8022 2.14063 44.9351 2.46094 44.9351 2.83594V21.7031C44.9351 22.0781 44.8022 22.3984 44.5366 22.6641C44.271 22.9297 43.9507 23.0625 43.5757 23.0625H43.2241C42.9429 23.0625 42.7007 22.9609 42.4976 22.7578C42.3101 22.5703 42.2163 22.3359 42.2163 22.0547C42.2163 21.9766 42.1772 21.9375 42.0991 21.9375H27.4976C27.4194 21.9375 27.3804 21.9844 27.3804 22.0781C27.3804 22.3594 27.271 22.6016 27.0522 22.8047C26.8491 23.0078 26.6069 23.1094 26.3257 23.1094H26.0913C25.7319 23.1094 25.4272 22.9844 25.1772 22.7344C24.9272 22.4844 24.8022 22.1797 24.8022 21.8203V2.83594ZM68.1897 5.53125C68.2991 5.53125 68.3538 5.46875 68.3538 5.34375V4.66406C68.3538 4.53906 68.2991 4.47656 68.1897 4.47656H67.4866C67.3616 4.47656 67.2991 4.53906 67.2991 4.66406V5.34375C67.2991 5.46875 67.3616 5.53125 67.4866 5.53125H68.1897ZM68.1897 8.29688C68.2991 8.29688 68.3538 8.24219 68.3538 8.13281V7.42969C68.3538 7.30469 68.2991 7.24219 68.1897 7.24219H67.4866C67.3616 7.24219 67.2991 7.30469 67.2991 7.42969V8.13281C67.2991 8.24219 67.3616 8.29688 67.4866 8.29688H68.1897ZM62.3538 7.24219C62.2288 7.24219 62.1663 7.30469 62.1663 7.42969V8.13281C62.1663 8.24219 62.2288 8.29688 62.3538 8.29688H63.0335C63.1429 8.29688 63.1976 8.24219 63.1976 8.13281V7.42969C63.1976 7.30469 63.1429 7.24219 63.0335 7.24219H62.3538ZM62.3538 4.47656C62.2288 4.47656 62.1663 4.53906 62.1663 4.66406V5.34375C62.1663 5.46875 62.2288 5.53125 62.3538 5.53125H63.0335C63.1429 5.53125 63.1976 5.46875 63.1976 5.34375V4.66406C63.1976 4.53906 63.1429 4.47656 63.0335 4.47656H62.3538ZM65.7757 7.42969C65.7757 7.30469 65.7132 7.24219 65.5882 7.24219H64.9085C64.7991 7.24219 64.7444 7.30469 64.7444 7.42969V8.13281C64.7444 8.24219 64.7991 8.29688 64.9085 8.29688H65.5882C65.7132 8.29688 65.7757 8.24219 65.7757 8.13281V7.42969ZM64.7444 5.34375C64.7444 5.46875 64.7991 5.53125 64.9085 5.53125H65.5882C65.7132 5.53125 65.7757 5.46875 65.7757 5.34375V4.66406C65.7757 4.53906 65.7132 4.47656 65.5882 4.47656H64.9085C64.7991 4.47656 64.7444 4.53906 64.7444 4.66406V5.34375ZM69.1976 2.69531C69.5726 2.69531 69.8929 2.82812 70.1585 3.09375C70.4397 3.35938 70.5804 3.6875 70.5804 4.07812V8.74219C70.5804 9.13281 70.4397 9.46094 70.1585 9.72656C69.8929 9.99219 69.5726 10.125 69.1976 10.125H61.4632C61.0882 10.125 60.7601 9.99219 60.4788 9.72656C60.2132 9.46094 60.0804 9.13281 60.0804 8.74219V4.07812C60.0804 3.6875 60.2132 3.35938 60.4788 3.09375C60.7601 2.82812 61.0882 2.69531 61.4632 2.69531H62.5647C62.6897 2.69531 62.7522 2.63281 62.7522 2.50781V1.6875C62.7522 1.42187 62.846 1.19531 63.0335 1.00781C63.2366 0.804688 63.471 0.703125 63.7366 0.703125C64.0179 0.703125 64.2522 0.804688 64.4397 1.00781C64.6429 1.19531 64.7444 1.42187 64.7444 1.6875V2.50781C64.7444 2.63281 64.7991 2.69531 64.9085 2.69531H65.5882C65.7132 2.69531 65.7757 2.63281 65.7757 2.50781V1.71094C65.7757 1.42969 65.8694 1.19531 66.0569 1.00781C66.2601 0.804688 66.5022 0.703125 66.7835 0.703125C67.0647 0.703125 67.2991 0.804688 67.4866 1.00781C67.6897 1.19531 67.7913 1.42969 67.7913 1.71094V2.50781C67.7913 2.63281 67.846 2.69531 67.9554 2.69531H69.1976ZM57.2913 11.1328C57.4007 11.1328 57.4554 11.0781 57.4554 10.9688V10.3594C57.4554 10.2344 57.4007 10.1719 57.2913 10.1719H51.4788C51.3538 10.1719 51.2913 10.2344 51.2913 10.3594V10.9688C51.2913 11.0781 51.3538 11.1328 51.4788 11.1328H57.2913ZM53.0726 16.9219C53.0726 17.0312 53.1351 17.0859 53.2601 17.0859H55.4632C55.5882 17.0859 55.6507 17.0312 55.6507 16.9219V16.1484C55.6507 16.0391 55.5882 15.9844 55.4632 15.9844H53.2601C53.1351 15.9844 53.0726 16.0391 53.0726 16.1484V16.9219ZM55.4632 14.1094C55.5882 14.1094 55.6507 14.0547 55.6507 13.9453V13.2422C55.6507 13.1172 55.5882 13.0547 55.4632 13.0547H53.2601C53.1351 13.0547 53.0726 13.1172 53.0726 13.2422V13.9453C53.0726 14.0547 53.1351 14.1094 53.2601 14.1094H55.4632ZM52.8382 3.42188C52.7288 3.42188 52.6741 3.48438 52.6741 3.60938V8.0625C52.6741 8.17188 52.7288 8.22656 52.8382 8.22656H53.3304C53.4397 8.22656 53.4944 8.17188 53.4944 8.0625V5.78906C53.4944 5.41406 53.6272 5.09375 53.8929 4.82812C54.1741 4.54688 54.5022 4.40625 54.8772 4.40625H55.8382C55.9632 4.40625 56.0257 4.35156 56.0257 4.24219V3.60938C56.0257 3.48438 55.9632 3.42188 55.8382 3.42188H52.8382ZM55.0179 8.0625C55.0179 8.17188 55.0726 8.22656 55.1819 8.22656H55.8382C55.9632 8.22656 56.0257 8.17188 56.0257 8.0625V6.21094C56.0257 6.08594 55.9632 6.02344 55.8382 6.02344H55.1819C55.0726 6.02344 55.0179 6.08594 55.0179 6.21094V8.0625ZM59.5882 12.0703C59.5882 12.0078 59.5491 11.9766 59.471 11.9766H58.2522C58.1272 11.9766 58.0647 12.0312 58.0647 12.1406V20.6953C58.0647 21.2422 58.0101 21.6641 57.9007 21.9609C57.7913 22.2734 57.5804 22.5156 57.2679 22.6875C56.9241 22.8906 56.4476 23.0156 55.8382 23.0625C55.8069 23.0625 55.7757 23.0625 55.7444 23.0625C55.4632 23.0625 55.2054 22.9688 54.971 22.7812C54.721 22.5781 54.5491 22.3125 54.4554 21.9844C54.3772 21.7344 54.4085 21.5 54.5491 21.2812C54.7054 21.0625 54.9163 20.9531 55.1819 20.9531C55.2444 20.9531 55.3069 20.9531 55.3694 20.9531C55.5569 20.9375 55.6507 20.8438 55.6507 20.6719V19.1953C55.6507 19.0703 55.5882 19.0078 55.4632 19.0078H53.2601C53.1351 19.0078 53.0726 19.0703 53.0726 19.1953V21.8906C53.0726 22.2188 52.9554 22.5 52.721 22.7344C52.4866 22.9688 52.2054 23.0859 51.8772 23.0859C51.5491 23.0859 51.2679 22.9688 51.0335 22.7344C50.7991 22.5 50.6819 22.2188 50.6819 21.8906V12.1406C50.6819 12.0312 50.6272 11.9766 50.5179 11.9766C50.1741 11.9766 49.8772 11.8594 49.6272 11.625C49.3772 11.375 49.2522 11.0703 49.2522 10.7109V9.44531C49.2522 9.11719 49.3694 8.83594 49.6038 8.60156C49.8538 8.35156 50.1429 8.22656 50.471 8.22656C50.5804 8.22656 50.6351 8.17969 50.6351 8.08594V2.78906C50.6351 2.41406 50.7679 2.09375 51.0335 1.82812C51.2991 1.54688 51.6272 1.40625 52.0179 1.40625H56.7757C57.1663 1.40625 57.4944 1.54688 57.7601 1.82812C58.0257 2.09375 58.1585 2.41406 58.1585 2.78906V8.0625C58.1585 8.17188 58.2132 8.22656 58.3226 8.22656C58.6819 8.22656 58.9866 8.35156 59.2366 8.60156C59.4866 8.85156 59.6116 9.15625 59.6116 9.51562V10.7578C59.6116 10.8828 59.6663 10.9453 59.7757 10.9453H70.0882C70.3382 10.9453 70.5569 11.0391 70.7444 11.2266C70.9319 11.4141 71.0257 11.6406 71.0257 11.9062C71.0257 12.1562 70.9319 12.375 70.7444 12.5625C70.5569 12.75 70.3382 12.8438 70.0882 12.8438H60.3382C60.1351 12.8438 59.9554 12.7734 59.7991 12.6328C59.6585 12.4766 59.5882 12.2891 59.5882 12.0703ZM66.9476 18.4688C66.9632 18.4219 66.9554 18.3828 66.9241 18.3516C66.8929 18.3047 66.8538 18.2812 66.8069 18.2812H63.5022C63.4554 18.2812 63.4241 18.3047 63.4085 18.3516C63.3929 18.3828 63.3929 18.4141 63.4085 18.4453C63.846 19.1797 64.1663 19.9062 64.3694 20.625C64.4007 20.7344 64.471 20.7891 64.5804 20.7891H65.846C65.971 20.7891 66.0569 20.7344 66.1038 20.625C66.4788 19.7656 66.7601 19.0469 66.9476 18.4688ZM62.8929 15.2812C62.7835 15.2812 62.7288 15.3438 62.7288 15.4688V16.4297C62.7288 16.5547 62.7835 16.6172 62.8929 16.6172H67.6507C67.7757 16.6172 67.8382 16.5547 67.8382 16.4297V15.4688C67.8382 15.3438 67.7757 15.2812 67.6507 15.2812H62.8929ZM68.2601 20.625C68.2444 20.6719 68.2444 20.7109 68.2601 20.7422C68.2757 20.7734 68.3069 20.7891 68.3538 20.7891H70.2757C70.5569 20.7891 70.7913 20.8828 70.9788 21.0703C71.1819 21.2734 71.2835 21.5156 71.2835 21.7969C71.2835 22.0781 71.1819 22.3125 70.9788 22.5C70.7913 22.7031 70.5569 22.8047 70.2757 22.8047H60.0804C59.7991 22.8047 59.5569 22.7031 59.3538 22.5C59.1663 22.3125 59.0726 22.0781 59.0726 21.7969C59.0726 21.5156 59.1663 21.2734 59.3538 21.0703C59.5569 20.8828 59.7991 20.7891 60.0804 20.7891H61.9788C62.0101 20.7891 62.0413 20.7734 62.0726 20.7422C62.1038 20.6953 62.1116 20.6562 62.096 20.625C62.0179 20.4219 61.9397 20.2266 61.8616 20.0391C61.7991 19.8672 61.7679 19.6953 61.7679 19.5234C61.7679 19.3672 61.7991 19.2031 61.8616 19.0312C61.9866 18.7031 62.221 18.4766 62.5647 18.3516C62.5647 18.3516 62.5647 18.3438 62.5647 18.3281C62.5647 18.2969 62.5569 18.2812 62.5413 18.2812H61.7913C61.4163 18.2812 61.0882 18.1484 60.8069 17.8828C60.5413 17.6172 60.4085 17.2891 60.4085 16.8984V15C60.4085 14.6094 60.5413 14.2812 60.8069 14.0156C61.0882 13.75 61.4163 13.6172 61.7913 13.6172H68.846C69.2366 13.6172 69.5647 13.75 69.8304 14.0156C70.096 14.2812 70.2288 14.6094 70.2288 15V16.8984C70.2288 17.2891 70.096 17.6172 69.8304 17.8828C69.5647 18.1484 69.2366 18.2812 68.846 18.2812H68.1429C68.1272 18.2812 68.1194 18.2891 68.1194 18.3047C68.1194 18.3203 68.1272 18.3281 68.1429 18.3281C68.4554 18.4062 68.6819 18.5938 68.8226 18.8906C68.8694 19.0156 68.8929 19.1484 68.8929 19.2891C68.8929 19.4453 68.8538 19.6016 68.7757 19.7578C68.6038 20.0547 68.4319 20.3438 68.2601 20.625ZM74.8038 15.8906C74.8507 15.5781 74.9991 15.3203 75.2491 15.1172C75.4522 14.9766 75.671 14.9062 75.9054 14.9062C75.9679 14.9062 76.0382 14.9062 76.1163 14.9062C76.4444 14.9688 76.7101 15.1328 76.9132 15.3984C77.0694 15.6172 77.1476 15.8594 77.1476 16.125C77.1476 16.1875 77.1476 16.25 77.1476 16.3125C76.9288 17.7969 76.6397 19.0859 76.2804 20.1797C76.1866 20.4766 75.9835 20.6797 75.671 20.7891C75.546 20.8359 75.4132 20.8594 75.2726 20.8594C75.1007 20.8594 74.9366 20.8203 74.7804 20.7422C74.4835 20.6016 74.2726 20.3828 74.1476 20.0859C74.0851 19.9141 74.0538 19.7422 74.0538 19.5703C74.0538 19.4297 74.0694 19.2891 74.1007 19.1484C74.3976 18.2578 74.6319 17.1719 74.8038 15.8906ZM81.6476 13.2891C81.6163 13.1953 81.5538 13.1562 81.4601 13.1719L80.4054 13.2422C80.296 13.2422 80.2413 13.3047 80.2413 13.4297V21.8438C80.2413 22.2031 80.1163 22.5 79.8663 22.7344C79.6319 22.9844 79.3351 23.1094 78.9757 23.1094C78.6319 23.1094 78.3351 22.9844 78.0851 22.7344C77.8351 22.5 77.7101 22.2031 77.7101 21.8438V13.6172C77.7101 13.4922 77.6554 13.4375 77.546 13.4531L75.4132 13.5938C75.3819 13.5938 75.3507 13.5938 75.3194 13.5938C75.0069 13.5938 74.7335 13.4922 74.4991 13.2891C74.2335 13.0703 74.0851 12.7812 74.0538 12.4219C74.0538 12.3906 74.0538 12.3516 74.0538 12.3047C74.0538 12.0234 74.1476 11.7656 74.3351 11.5312C74.5538 11.2812 74.8351 11.1484 75.1788 11.1328L75.5304 11.1094C75.6397 11.1094 75.7335 11.0625 75.8116 10.9688C76.1554 10.5312 76.4522 10.1328 76.7022 9.77344C76.7804 9.67969 76.7804 9.57812 76.7022 9.46875C76.2179 8.78125 75.5772 8.01562 74.7804 7.17188C74.5304 6.92188 74.3897 6.625 74.3585 6.28125C74.3585 6.23438 74.3585 6.1875 74.3585 6.14062C74.3585 5.85938 74.4366 5.59375 74.5929 5.34375L74.8976 4.92188C74.9913 4.78125 75.1241 4.70312 75.296 4.6875C75.4835 4.65625 75.6476 4.69531 75.7882 4.80469C75.8351 4.85156 75.8663 4.85156 75.8819 4.80469C76.3351 3.89844 76.7569 2.94531 77.1476 1.94531C77.2882 1.60156 77.5226 1.35156 77.8507 1.19531C78.0382 1.10156 78.2257 1.05469 78.4132 1.05469C78.5694 1.05469 78.7179 1.08594 78.8585 1.14844C79.1866 1.25781 79.421 1.47656 79.5616 1.80469C79.6085 1.94531 79.6319 2.08594 79.6319 2.22656C79.6319 2.41406 79.5851 2.59375 79.4913 2.76562C78.6944 4.26562 78.0304 5.4375 77.4991 6.28125C77.4366 6.375 77.4444 6.46875 77.5226 6.5625C77.7101 6.78125 77.9132 7.02344 78.1319 7.28906C78.2101 7.38281 78.2804 7.38281 78.3429 7.28906C78.8897 6.44531 79.3976 5.57812 79.8663 4.6875C80.0382 4.35938 80.296 4.125 80.6397 3.98438C80.8116 3.92188 80.9757 3.89062 81.1319 3.89062C81.3194 3.89062 81.4991 3.92969 81.671 4.00781C81.9835 4.13281 82.1944 4.35938 82.3038 4.6875C82.3351 4.8125 82.3507 4.92969 82.3507 5.03906C82.3507 5.24219 82.2882 5.4375 82.1632 5.625C80.8194 7.65625 79.5694 9.40625 78.4132 10.875C78.3819 10.9062 78.3741 10.9375 78.3897 10.9688C78.4054 11 78.4366 11.0156 78.4835 11.0156L80.546 10.9219C80.5929 10.9219 80.6241 10.9062 80.6397 10.875C80.6554 10.8438 80.6554 10.8047 80.6397 10.7578C80.5616 10.5859 80.4835 10.4141 80.4054 10.2422C80.3272 10.0859 80.2882 9.92969 80.2882 9.77344C80.2882 9.64844 80.3038 9.53125 80.3351 9.42188C80.4288 9.14062 80.6163 8.9375 80.8976 8.8125C81.0538 8.75 81.2179 8.71875 81.3897 8.71875C81.5147 8.71875 81.6397 8.73438 81.7647 8.76562C82.0616 8.875 82.2882 9.0625 82.4444 9.32812C83.0069 10.3906 83.4522 11.3828 83.7804 12.3047C83.8272 12.4453 83.8507 12.5859 83.8507 12.7266C83.8507 12.8984 83.8116 13.0703 83.7335 13.2422C83.5772 13.5547 83.3429 13.7891 83.0304 13.9453C82.8897 14.0078 82.7491 14.0391 82.6085 14.0391C82.4679 14.0391 82.3272 14.0078 82.1866 13.9453C81.921 13.8047 81.7413 13.5859 81.6476 13.2891ZM80.6866 16.2656C80.6397 16.1406 80.6163 16.0156 80.6163 15.8906C80.6163 15.75 80.6554 15.6016 80.7335 15.4453C80.8585 15.1797 81.0616 15 81.3429 14.9062C81.4679 14.8594 81.5929 14.8359 81.7179 14.8359C81.8897 14.8359 82.0616 14.875 82.2335 14.9531C82.5147 15.0781 82.7179 15.2891 82.8429 15.5859C83.1397 16.3516 83.4054 17.1328 83.6397 17.9297C83.6866 18.0547 83.7101 18.1719 83.7101 18.2812C83.7101 18.4844 83.6554 18.6797 83.546 18.8672C83.3897 19.1641 83.1554 19.3672 82.8429 19.4766C82.7179 19.5234 82.6007 19.5469 82.4913 19.5469C82.3194 19.5469 82.1476 19.5 81.9757 19.4062C81.7101 19.25 81.5382 19.0156 81.4601 18.7031C81.2569 17.9531 80.9991 17.1406 80.6866 16.2656ZM87.6241 16.3125C87.4991 16.3125 87.4366 16.375 87.4366 16.5V19.6875C87.4366 19.8125 87.4991 19.875 87.6241 19.875H91.8429C91.9679 19.875 92.0304 19.8125 92.0304 19.6875V16.5C92.0304 16.375 91.9679 16.3125 91.8429 16.3125H87.6241ZM92.0304 4.61719C92.0304 4.49219 91.9679 4.42969 91.8429 4.42969H87.6241C87.4991 4.42969 87.4366 4.49219 87.4366 4.61719V7.59375C87.4366 7.71875 87.4991 7.78125 87.6241 7.78125H91.8429C91.9679 7.78125 92.0304 7.71875 92.0304 7.59375V4.61719ZM91.8429 13.7578C91.9679 13.7578 92.0304 13.6953 92.0304 13.5703V10.5C92.0304 10.375 91.9679 10.3125 91.8429 10.3125H87.6241C87.4991 10.3125 87.4366 10.375 87.4366 10.5V13.5703C87.4366 13.6953 87.4991 13.7578 87.6241 13.7578H91.8429ZM94.9132 19.6875C94.9132 19.8125 94.9679 19.875 95.0772 19.875H95.2179C95.5772 19.875 95.8819 20 96.1319 20.25C96.3819 20.5 96.5069 20.7969 96.5069 21.1406C96.5069 21.5 96.3819 21.8047 96.1319 22.0547C95.8819 22.3047 95.5772 22.4297 95.2179 22.4297H83.7569C83.3976 22.4297 83.0929 22.3047 82.8429 22.0547C82.5929 21.8047 82.4679 21.5 82.4679 21.1406C82.4679 20.7969 82.5929 20.5 82.8429 20.25C83.0929 20 83.3976 19.875 83.7569 19.875H84.5069C84.6163 19.875 84.671 19.8125 84.671 19.6875V3.25781C84.671 2.86719 84.8038 2.53906 85.0694 2.27344C85.3507 2.00781 85.6788 1.875 86.0538 1.875H93.5304C93.9054 1.875 94.2257 2.00781 94.4913 2.27344C94.7726 2.53906 94.9132 2.86719 94.9132 3.25781V19.6875Z" fill="#007FAB"/>
<rect x="0.333496" y="37" width="120" height="42" rx="21" fill="#007FAB"/>
<g clip-path="url(#clip0_0_1)">
<path d="M36.5834 57.0833C38.6085 57.0833 40.2501 55.4417 40.2501 53.4167C40.2501 51.3916 38.6085 49.75 36.5834 49.75C34.5584 49.75 32.9167 51.3916 32.9167 53.4167C32.9167 55.4417 34.5584 57.0833 36.5834 57.0833Z" stroke="white" stroke-width="2.5" stroke-linecap="round" stroke-linejoin="round"/>
<path d="M31.0835 66.25V64.4167C31.0835 63.4442 31.4698 62.5116 32.1574 61.8239C32.8451 61.1363 33.7777 60.75 34.7502 60.75H38.4168C39.3893 60.75 40.3219 61.1363 41.0096 61.8239C41.6972 62.5116 42.0835 63.4442 42.0835 64.4167V66.25" stroke="white" stroke-width="2.5" stroke-linecap="round" stroke-linejoin="round"/>
<path d="M43.8741 56.6251C44.3029 56.3864 44.6823 56.0624 44.9872 55.6696C45.4864 55.0265 45.7574 54.2355 45.7574 53.4213C45.7574 52.6072 45.4864 51.8162 44.9872 51.1731C44.5871 50.6576 44.0586 50.2606 43.4585 50.0193" stroke="white" stroke-width="2.5" stroke-linecap="round" stroke-linejoin="round"/>
<path d="M47.5835 66.25V64.4167C47.5788 63.6074 47.3066 62.8224 46.8092 62.184C46.3117 61.5457 45.6171 61.0898 44.8335 60.8875" stroke="white" stroke-width="2.5" stroke-linecap="round" stroke-linejoin="round"/>
</g>
<path d="M66.3647 59.5469C66.3491 59.5781 66.3491 59.6172 66.3647 59.6641C66.3804 59.6953 66.4038 59.7109 66.4351 59.7109H70.2319C70.3413 59.7109 70.396 59.6484 70.396 59.5234V56.0781C70.396 55.6719 70.4429 54.4609 70.5366 52.4453C70.5366 52.4141 70.521 52.3984 70.4897 52.3984C70.4585 52.3984 70.4351 52.4141 70.4194 52.4453C69.9663 53.4453 69.5054 54.3906 69.0366 55.2812L66.3647 59.5469ZM74.4507 59.7109C74.8257 59.7109 75.1382 59.8438 75.3882 60.1094C75.6538 60.3594 75.7866 60.6719 75.7866 61.0469C75.7866 61.4219 75.6538 61.7422 75.3882 62.0078C75.1382 62.2578 74.8257 62.3828 74.4507 62.3828H73.8647C73.7397 62.3828 73.6772 62.4453 73.6772 62.5703V65.6172C73.6772 65.9922 73.5444 66.3203 73.2788 66.6016C73.0132 66.8672 72.6851 67 72.2944 67H71.7788C71.4038 67 71.0757 66.8672 70.7944 66.6016C70.5288 66.3203 70.396 65.9922 70.396 65.6172V62.5703C70.396 62.4453 70.3413 62.3828 70.2319 62.3828H64.0444C63.7007 62.3828 63.4116 62.2656 63.1772 62.0312C62.9585 61.7969 62.8491 61.5156 62.8491 61.1875C62.8491 60.3906 63.0522 59.6484 63.4585 58.9609L68.7319 50.4062C68.9663 50.0469 69.271 49.7656 69.646 49.5625C70.021 49.3438 70.4194 49.2344 70.8413 49.2344H72.2944C72.6851 49.2344 73.0132 49.375 73.2788 49.6562C73.5444 49.9219 73.6772 50.2422 73.6772 50.6172V59.5234C73.6772 59.6484 73.7397 59.7109 73.8647 59.7109H74.4507ZM81.0179 67C80.6429 67 80.3147 66.8672 80.0335 66.6016C79.7679 66.3203 79.6351 65.9922 79.6351 65.6172V65.5234C79.6351 65.1484 79.7679 64.8281 80.0335 64.5625C80.3147 64.2812 80.6429 64.1406 81.0179 64.1406H83.2679C83.3929 64.1406 83.4554 64.0859 83.4554 63.9766V53.0781C83.4554 52.9688 83.3929 52.9141 83.2679 52.9141H81.3226C81.0257 52.9141 80.7679 52.8125 80.5491 52.6094C80.346 52.3906 80.2444 52.125 80.2444 51.8125C80.2444 51.5 80.3382 51.2266 80.5257 50.9922C80.7288 50.7422 80.9866 50.5781 81.2991 50.5C82.0022 50.3125 82.6351 50.0938 83.1976 49.8438C84.1194 49.4375 84.9476 49.2344 85.6819 49.2344C86.0413 49.2344 86.346 49.3672 86.596 49.6328C86.846 49.8828 86.971 50.1875 86.971 50.5469V63.9766C86.971 64.0859 87.0335 64.1406 87.1585 64.1406H88.9397C89.3147 64.1406 89.6351 64.2812 89.9007 64.5625C90.1819 64.8281 90.3226 65.1484 90.3226 65.5234V65.6172C90.3226 65.9922 90.1819 66.3203 89.9007 66.6016C89.6351 66.8672 89.3147 67 88.9397 67H81.0179Z" fill="white"/>
<defs>
<clipPath id="clip0_0_1">
<rect width="22" height="22" fill="white" transform="translate(28.3335 47)"/>
</clipPath>
</defs>
</svg>
